<svg xmlns="http://www.w3.org/2000/svg" width="1100" height="800" viewBox="0 0 1100 800" preserveAspectRatio="xMidYMid meet" style="width: 100%; height: 100%; bump;"><defs><clipPath id="animationMask_dCg2SirgMW"><rect width="1100" height="800" x="0" y="0"></rect></clipPath><mask id="ly_xPyLjN435O" mask-type="alpha"><g style="user-select: none; display: block;" transform="matrix(1.45,0,0,1.45,375.715,1.1350000000000051)" opacity="1"><g opacity="1" transform="matrix(1,0,0,1,127.3,79)"><path style="display: block;" fill="rgb(222,87,51)" fill-opacity="1" d="M0 0 M-0.001,-51.1 C28.221,-51.1 51.1,-28.222 51.1,0 C51.1,28.222 28.221,51.1 -0.001,51.1 C-28.223000000000003,51.1 -51.1,28.222 -51.1,0 C-51.1,-28.222 -28.223000000000003,-51.1 -0.001,-51.1z"></path></g></g></mask><mask id="ly_B39RrQl4kW" mask-type="alpha"><g transform="matrix(1,0,0,1,550,400)" opacity="1" style="user-select: none;"><g opacity="1" transform="matrix(1,0,0,1,31.723,281.148)"><path fill="rgb(14,4,33)" fill-opacity="1" d="M0 0 M0,-13.1485 C155.48264775,-13.1485 281.7225,-7.25665715 281.7225,0 C281.7225,7.25665715 155.48264775,13.1485 0,13.1485 C-155.48264775,13.1485 -281.7225,7.25665715 -281.7225,0 C-281.7225,-7.25665715 -155.48264775,-13.1485 0,-13.1485z"></path></g><g opacity="1" transform="matrix(1,0,0,1,36.367,36.941)"><path fill="rgb(14,4,33)" fill-opacity="1" d="M0 0 M289.367,-357.4415 C289.367,-357.4415 289.367,241.44150000000002 289.367,241.44150000000002 C289.367,241.44150000000002 -289.367,241.44150000000002 -289.367,241.44150000000002 C-289.367,241.44150000000002 -289.367,-357.4415 -289.367,-357.4415 C-289.367,-357.4415 289.367,-357.4415 289.367,-357.4415z"></path></g></g></mask><clipPath id="cp_GMyVad0t"><path d="M0,0 L1100,0 L1100,800 L0,800z"></path></clipPath><mask id="ly_Z6ko1zVGuc" mask-type="alpha"><g style="user-select: none; display: none;" transform="matrix(1,0,0,1,84.5,248)" opacity="1"><g opacity="1" transform="matrix(1,0,0,1,550.932,324.9)"><path style="display: none;" fill="rgb(17,17,17)" fill-opacity="1" d="M0 0 M4.445,33.656 C-18.022,34.832 -39.288000000000004,8.989000000000003 -46.743,-15.338 C-49.17,-23.259 -42.783,-30.393 -34.51,-30.826 C-34.51,-30.826 33.789,-34.399 33.789,-34.399 C42.061,-34.832 49.17,-28.416 47.776,-20.25 C43.519000000000005,4.68 26.902,32.481 4.445,33.656z"></path></g></g></mask><mask id="ly_EHc5uR3ewE" mask-type="alpha"><g style="user-select: none; display: none;" transform="matrix(1,0,0,1,84.5,248)" opacity="1"><g opacity="1" transform="matrix(1,0,0,1,550.932,324.9)"><path style="display: none;" fill="rgb(17,17,17)" fill-opacity="1" d="M0 0 M4.445,33.656 C-18.022,34.832 -39.288000000000004,8.989000000000003 -46.743,-15.338 C-49.17,-23.259 -42.783,-30.393 -34.51,-30.826 C-34.51,-30.826 33.789,-34.399 33.789,-34.399 C42.061,-34.832 49.17,-28.416 47.776,-20.25 C43.519000000000005,4.68 26.902,32.481 4.445,33.656z"></path></g></g></mask><mask id="ly_61VFrklopa" mask-type="alpha"><g transform="matrix(1,0,0,0.8515,124.5,295.78178549999996)" opacity="1" style="user-select: none;"><g opacity="1" transform="matrix(1,0,0,1,454.372,301.609)"><path fill="rgb(53,80,93)" fill-opacity="1" d="M0 0 M240.507,49.87 C237.66400000000002,158.27 123.703,152.702 2.093,154.833 C-97.701,153.31 -240.628,142.663 -237.785,34.263 C-234.942,-74.138 -139.905,-158.27 11.511,-154.298 C162.927,-150.328 243.35,-58.53000000000001 240.507,49.87z"></path></g></g></mask><mask id="ly_vqjGHMouqm" mask-type="alpha"><g transform="matrix(0.9841956079692419,-0.17708474031958335,0.17708474031958335,0.9841956079692419,526.4434357299921,338.3705669628001)" opacity="1" style="user-select: none;"><g opacity="1" transform="matrix(1,0,0,1,-23.387,-119.141)"><path fill="rgb(110,206,151)" fill-opacity="1" d="M0 0 M52.6135,-50.8595 C52.6135,-50.8595 52.6135,50.8595 52.6135,50.8595 C52.6135,50.8595 -52.6135,50.8595 -52.6135,50.8595 C-52.6135,50.8595 -52.6135,-50.8595 -52.6135,-50.8595 C-52.6135,-50.8595 52.6135,-50.8595 52.6135,-50.8595z"></path></g></g></mask><mask id="ly_kkdpFeHN3m" mask-type="alpha"><g transform="matrix(0.9841956079692419,0.17708474031958335,-0.17708474031958335,0.9841956079692419,665.004329637161,346.05252975091753)" opacity="1" style="user-select: none;"><g opacity="1" transform="matrix(1,0,0,1,-23.387,-119.141)"><path fill="rgb(110,206,151)" fill-opacity="1" d="M0 0 M52.6135,-50.8595 C52.6135,-50.8595 52.6135,50.8595 52.6135,50.8595 C52.6135,50.8595 -52.6135,50.8595 -52.6135,50.8595 C-52.6135,50.8595 -52.6135,-50.8595 -52.6135,-50.8595 C-52.6135,-50.8595 52.6135,-50.8595 52.6135,-50.8595z"></path></g></g></mask><clipPath id="Y4W1VkKBqa"><path fill="#ffffff" clip-rule="nonzero" d=" M-293.131,-256.131 C-293.131,-256.131 -293.131,253.869 -293.131,253.869 C-293.131,253.869 456.869,253.869 456.869,253.869 C456.869,253.869 456.869,-256.131 456.869,-256.131 C456.869,-256.131 -293.131,-256.131 -293.131,-256.131" fill-opacity="1"></path></clipPath></defs><g clip-path="url(#animationMask_dCg2SirgMW)"><g transform="matrix(1,0,0,1,550,400)" opacity="1" style="user-select: none;"><g opacity="1" transform=""><path fill="rgb(241,241,241)" fill-opacity="1" d="M0 0 M581.0235,-430.914 C581.0235,-430.914 581.0235,430.914 581.0235,430.914 C581.0235,430.914 -581.0235,430.914 -581.0235,430.914 C-581.0235,430.914 -581.0235,-430.914 -581.0235,-430.914 C-581.0235,-430.914 581.0235,-430.914 581.0235,-430.914z"></path><path stroke-linecap="butt" stroke-linejoin="miter" fill-opacity="0" stroke-miterlimit="4" stroke="rgb(218,90,64)" stroke-opacity="1" stroke-width="20" d="M0 0 M581.0235,-430.914 C581.0235,-430.914 581.0235,430.914 581.0235,430.914 C581.0235,430.914 -581.0235,430.914 -581.0235,430.914 C-581.0235,430.914 -581.0235,-430.914 -581.0235,-430.914 C-581.0235,-430.914 581.0235,-430.914 581.0235,-430.914z"></path></g></g><g clip-path="url(#Y4W1VkKBqa)" transform="matrix(1,0,0,1,468.131,456.131)" opacity="0.5" style="user-select: none; display: block;"><g opacity="1" transform="matrix(1,0,0,1,81.869,118.869)"><path fill="rgb(110,206,151)" fill-opacity="1" d="M0 0 M0,-375 C206.96249999999998,-375 375,-206.96249999999998 375,0 C375,206.96249999999998 206.96249999999998,375 0,375 C-206.96249999999998,375 -375,206.96249999999998 -375,0 C-375,-206.96249999999998 -206.96249999999998,-375 0,-375z" style="display: block;"></path></g></g><g transform="matrix(1,0,0,1,20,653.5)" opacity="1" style="user-select: none; display: block;"><g opacity="1" transform="matrix(1,0,0,1,530,54.569)"><path fill="rgb(126,82,42)" fill-opacity="1" d="M0 0 M530,0 C530,0 530,0.431 530,0.431 C530,0.431 529.96,0.431 529.96,0.431 C526.36,19.01 290.468,34 0,34 C-290.468,34 -526.3589999999999,19.01 -529.958,0.431 C-529.958,0.431 -530,0.431 -530,0.431 C-530,0.431 -530,0 -530,0 C-530,0 -530,-21.897 -530,-21.897 C-530,-21.897 -405.471,-21.897 -405.471,-21.897 C-308.249,-29.298 -162.685,-34 0,-34 C162.685,-34 308.249,-29.298 405.471,-21.897 C405.471,-21.897 530,-21.897 530,-21.897 C530,-21.897 530,0 530,0z" style="display: block;"></path></g><g opacity="1" transform="matrix(1,0,0,1,530,34.569)"><path fill="rgb(154,104,59)" fill-opacity="1" d="M0 0 M530,0 C530,18.778 292.711,34 0,34 C-292.711,34 -530,18.778 -530,0 C-530,-18.777 -292.711,-34 0,-34 C292.711,-34 530,-18.777 530,0z" style="display: block;"></path></g></g><g transform="matrix(1,0,0,1,73.5,663.5)" opacity="1" style="user-select: none; display: none;"><g opacity="1" transform="matrix(1,0,0,1,515.5,14.303)"><path fill="rgb(126,82,42)" fill-opacity="1" d="M0 0 M237.5,-0.001 C237.5,7.629 131.168,13.814 0,13.814 C-131.168,13.814 -237.5,7.629 -237.5,-0.001 C-237.5,-7.63 -131.168,-13.814 0,-13.814 C131.168,-13.814 237.5,-7.63 237.5,-0.001z" style="display: none;"></path></g></g><g style="user-select: none; display: block;" transform="matrix(1,0,0,1,550,400)" opacity="1"><g opacity="1" transform="matrix(1,0,0,1,31.723,281.148)"><path style="display: block;" fill="rgb(14,4,33)" fill-opacity="1" d="M0 0 M0,-13.1485 C155.48264775,-13.1485 281.7225,-7.25665715 281.7225,0 C281.7225,7.25665715 155.48264775,13.1485 0,13.1485 C-155.48264775,13.1485 -281.7225,7.25665715 -281.7225,0 C-281.7225,-7.25665715 -155.48264775,-13.1485 0,-13.1485z"></path></g></g><g mask="url(#ly_B39RrQl4kW)"><g clip-path="url(#cp_GMyVad0t)" transform="matrix(1,0,0,1,0,0)" opacity="1"><g transform="matrix(1,0,0,1,0,0)" opacity="1" style="user-select: none;"><g opacity="1" transform="matrix(1,0,0,1,677.9999999999999,247.99999999999997)"><g opacity="1" transform="matrix(-0.6307068004651556,0.7760212186834883,-0.7760212186834883,-0.6307068004651556,-95.48639274928875,117.48639274912496)"></g><g opacity="1" transform="matrix(1,0,0,1,0,0)"><g opacity="1" transform="matrix(1,0,0,1,0,0)"></g></g><g opacity="1" transform="matrix(1,0,0,1,0,0)"><g opacity="1" transform="matrix(1,0,0,1,-200,-200)"></g></g><g opacity="1" transform="matrix(1,0,0,1,-135,0)"><g opacity="1" transform="matrix(1,0,0,1,0,0)"></g></g></g><g opacity="1" transform="matrix(1,0,0,1,0,0)"><g opacity="1" transform="matrix(1,0,0,1,677.9999999999999,247.99999999999997)"><path stroke-linecap="round" stroke-linejoin="round" fill-opacity="0" stroke="rgb(52,80,93)" stroke-opacity="1" stroke-width="36" d="M0 0 M0.09409451261437596,0.04277845368032729 C2.962513417422471,1.3715195821698103 70.36705764241704,33.26691603402081 77.2232330736668,99.64556036678742 C84.08081523293573,166.0240593851358 24.619593051009815,211.0246366440071 22.083362906248837,212.9116757672914"></path><g opacity="1" transform="matrix(-0.6307068004651559,0.7760212186834881,-0.7760212186834881,-0.6307068004651559,-95.48639274928881,117.48639274912493)"></g></g><g opacity="1" transform="matrix(0.9500000000000001,0,0,0.9500000000000001,672.2999999999998,257.5)"><path stroke-linecap="round" stroke-linejoin="round" fill-opacity="0" stroke="rgb(88,109,118)" stroke-opacity="1" stroke-width="12" d="M0 0 M0.09409451261437596,0.04277845368032729 C2.962513417422471,1.3715195821698103 70.36705764241704,33.26691603402081 77.2232330736668,99.64556036678742 C84.08081523293573,166.0240593851358 24.619593051009815,211.0246366440071 22.083362906248837,212.9116757672914"></path><g opacity="1" transform="matrix(-0.6307068004651559,0.7760212186834881,-0.7760212186834881,-0.6307068004651559,-95.48639274928881,117.48639274912493)"></g></g></g></g><g style="display: none;"><g><path stroke-linecap="butt" stroke-linejoin="miter" fill-opacity="0" stroke-miterlimit="4" style="display: none;"></path><g></g></g><g><g><g></g></g><g><g></g></g><g><g></g></g></g></g><g transform="matrix(1,0,0,1,0,0)" opacity="1" style="user-select: none;"><g opacity="1" transform="matrix(1,0,0,1,499.246,255.60599999999994)"><g opacity="1" transform="matrix(-0.7699995835164164,0.6380443882556647,-0.6380443882556647,-0.7699995835164164,-112.3063927491635,93.0603927493069)"></g><g opacity="1" transform="matrix(1,0,0,1,0,0)"><g opacity="1" transform="matrix(1,0,0,1,0,0)"></g></g><g opacity="1" transform="matrix(1,0,0,1,0,0)"><g opacity="1" transform="matrix(1,0,0,1,-200,-200)"></g></g><g opacity="1" transform="matrix(1,0,0,1,-135,0)"><g opacity="1" transform="matrix(1,0,0,1,0,0)"></g></g></g><g opacity="1" transform="matrix(1,0,0,1,0,0)"><g opacity="1" transform="matrix(1,0,0,1,499.246,255.60599999999994)"><path stroke-linecap="round" stroke-linejoin="round" fill-opacity="0" stroke="rgb(52,80,93)" stroke-opacity="1" stroke-width="36" d="M0 0 M0.08598484301091958,0.05602321659037557 C2.704777850302662,1.78861352735629 64.56910656891444,43.43384673831988 58.418938828201334,109.05996017467305 C52.268771087488204,174.6860736110262 -16.255996111910022,204.1118598752584 -19.151103298077757,205.32771364138324"></path><g opacity="1" transform="matrix(-0.7699995835164164,0.6380443882556647,-0.6380443882556647,-0.7699995835164164,-112.3063927491635,93.0603927493069)"></g></g><g opacity="1" transform="matrix(0.9500000000000001,0,0,0.9500000000000001,493.546,265.10599999999994)"><path stroke-linecap="round" stroke-linejoin="round" fill-opacity="0" stroke="rgb(88,109,118)" stroke-opacity="1" stroke-width="12" d="M0 0 M0.08598484301091958,0.05602321659037557 C2.704777850302662,1.78861352735629 64.56910656891444,43.43384673831988 58.418938828201334,109.05996017467305 C52.268771087488204,174.6860736110262 -16.255996111910022,204.1118598752584 -19.151103298077757,205.32771364138324"></path><g opacity="1" transform="matrix(-0.7699995835164164,0.6380443882556647,-0.6380443882556647,-0.7699995835164164,-112.3063927491635,93.0603927493069)"></g></g></g></g><g style="display: none;"><g><path stroke-linecap="butt" stroke-linejoin="miter" fill-opacity="0" stroke-miterlimit="4" style="display: none;"></path><g></g></g><g><g><g></g></g><g><g></g></g><g><g></g></g></g></g><g transform="matrix(0.9795612093250817,0.2011463079094006,-0.2011463079094006,0.9795612093250817,-7.534975807125761,-67.57752564568355)" opacity="1" style="user-select: none;"><g opacity="1" transform="matrix(1,0,0,1,322.50000000000006,145)"><g opacity="1" transform="matrix(1,0,0,1,409.719,30.769)"><path fill="rgb(53,80,93)" fill-opacity="1" d="M0 0 M15.139,22.409 C1.927999999999999,30.769 -15.559,26.838 -23.921,13.628 C-32.281,0.4169999999999998 -28.348,-17.07 -15.138,-25.43 C-1.9269999999999996,-33.791 15.558,-29.86 23.919,-16.649 C32.28,-3.439 28.349,14.047999999999998 15.139,22.409z"></path></g></g></g><g mask="url(#ly_kkdpFeHN3m)"><g transform="matrix(0.9795612093250817,0.2011463079094006,-0.2011463079094006,0.9795612093250817,-7.534364995300052,-67.57658460786828)" opacity="1" style="user-select: none;"><g opacity="1" transform="matrix(1,0,0,1,322.5,145)"><g opacity="1" transform="matrix(1,0,0,1,401.693,28.257)"><path fill="rgb(255,255,255)" fill-opacity="1" d="M0 0 M11.736,18.543 C1.495000000000001,25.024 -12.062,21.977 -18.543,11.736 C-25.024,1.495000000000001 -21.977,-12.061 -11.736,-18.543 C-1.4939999999999998,-25.024 12.061,-21.977 18.543,-11.735 C25.024,-1.4949999999999992 21.976,12.062 11.736,18.543z"></path></g></g></g></g><g transform="matrix(0.9795612093250817,0.2011463079094006,-0.2011463079094006,0.9795612093250817,291.70785240170653,142.43744715496774)" opacity="1" style="user-select: none;"><g opacity="1" transform="matrix(1,0,0,1,390.943,38.079)"><path fill="rgb(17,17,17)" fill-opacity="1" d="M0 0 M3.03,4.787 C0.3859999999999997,6.46 -3.114,5.673 -4.786,3.03 C-6.459,0.3859999999999997 -5.6739999999999995,-3.1129999999999995 -3.031,-4.786 C-0.3860000000000001,-6.459999999999999 3.1129999999999995,-5.672 4.786,-3.029 C6.459,-0.3849999999999998 5.6739999999999995,3.114 3.03,4.787z"></path></g></g><g transform="matrix(0.9795612093250817,0.2011463079094006,-0.2011463079094006,0.9795612093250817,-189.29097580712573,-64.97552564568355)" opacity="1" style="user-select: none;"><g opacity="1" transform="matrix(1,0,0,1,322.50000000000006,145)"><g opacity="1" transform="matrix(1,0,0,1,409.719,30.769)"><path fill="rgb(53,80,93)" fill-opacity="1" d="M0 0 M15.139,22.409 C1.927999999999999,30.769 -15.559,26.838 -23.921,13.628 C-32.281,0.4169999999999998 -28.348,-17.07 -15.138,-25.43 C-1.9269999999999996,-33.791 15.558,-29.86 23.919,-16.649 C32.28,-3.439 28.349,14.047999999999998 15.139,22.409z"></path></g></g></g><g mask="url(#ly_vqjGHMouqm)"><g transform="matrix(0.9795612093250817,0.2011463079094006,-0.2011463079094006,0.9795612093250817,-189.2913649952999,-64.97558460786831)" opacity="1" style="user-select: none;"><g opacity="1" transform="matrix(1,0,0,1,322.5,145)"><g opacity="1" transform="matrix(1,0,0,1,401.693,28.257)"><path fill="rgb(255,255,255)" fill-opacity="1" d="M0 0 M11.736,18.543 C1.495000000000001,25.024 -12.062,21.977 -18.543,11.736 C-25.024,1.495000000000001 -21.977,-12.061 -11.736,-18.543 C-1.4939999999999998,-25.024 12.061,-21.977 18.543,-11.735 C25.024,-1.4949999999999992 21.976,12.062 11.736,18.543z"></path></g></g></g></g><g transform="matrix(0.9795612093250817,0.2011463079094006,-0.2011463079094006,0.9795612093250817,109.95085240170664,145.03944715496772)" opacity="1" style="user-select: none;"><g opacity="1" transform="matrix(1,0,0,1,390.943,38.079)"><path fill="rgb(17,17,17)" fill-opacity="1" d="M0 0 M3.03,4.787 C0.3859999999999997,6.46 -3.114,5.673 -4.786,3.03 C-6.459,0.3859999999999997 -5.6739999999999995,-3.1129999999999995 -3.031,-4.786 C-0.3860000000000001,-6.459999999999999 3.1129999999999995,-5.672 4.786,-3.029 C6.459,-0.3849999999999998 5.6739999999999995,3.114 3.03,4.787z"></path></g></g><g transform="matrix(1,0,0,0.8515,124.5,295.78178549999996)" opacity="1" style="user-select: none;"><g opacity="1" transform="matrix(1,0,0,1,454.372,301.609)"><path fill="rgb(53,80,93)" fill-opacity="1" d="M0 0 M240.507,49.87 C237.66400000000002,158.27 123.703,152.702 2.093,154.833 C-97.701,153.31 -240.628,142.663 -237.785,34.263 C-234.942,-74.138 -139.905,-158.27 11.511,-154.298 C162.927,-150.328 243.35,-58.53000000000001 240.507,49.87z"></path></g></g><g mask="url(#ly_61VFrklopa)"><g transform="matrix(1,0,0,0.8515,122.5,296.018644)" opacity="1" style="user-select: none;"><g opacity="1" transform="matrix(1,0,0,1,451.59,334.117)"><path fill="rgb(88,108,118)" fill-opacity="1" d="M0 0 M202.404,14.987 C197.867,90.03 103.569,145.386 -8.215,138.629 C-119.998,131.87199999999999 -206.94,65.55900000000001 -202.404,-9.484 C-197.867,-84.527 -103.57100000000001,-139.883 8.213,-133.125 C119.997,-126.368 206.94,-60.056000000000004 202.404,14.987z"></path></g></g></g><g transform="matrix(0.9995065603657316,0.03141075907812829,-0.03141075907812829,0.9995065603657316,-191.20072227577748,105.07347113385339)" opacity="0.75" style="user-select: none;"><g opacity="1" transform="matrix(1,0,0,1,322.5,145.00000000000003)"><g opacity="1" transform="matrix(1,0,0,1,456.9,161.302)"><path fill="rgb(196,211,219)" fill-opacity="1" d="M0 0 M-8.766,-0.259 C-8.84,1.807 -4.976,3.597 -0.134,3.741 C4.707,3.884 8.692,2.324 8.766,0.259 C8.839,-1.807 4.9750000000000005,-3.5980000000000003 0.134,-3.741 C-4.707,-3.884 -8.692,-2.3249999999999997 -8.766,-0.259z"></path></g></g><g opacity="1" transform="matrix(1,0,0,1,322.50000000000006,145.00100000000003)"><g opacity="1" transform="matrix(1,0,0,1,408.291,163.891)"><path fill="rgb(196,211,219)" fill-opacity="1" d="M0 0 M-22.51,0.815 C-22.454,3.243 -12.331,4.846 0.1,4.396 C12.532,3.9459999999999997 22.564,1.613 22.51,-0.814 C22.454,-3.242 12.331,-4.845999999999999 -0.101,-4.395 C-12.532,-3.9459999999999997 -22.565,-1.613 -22.51,0.815z"></path></g></g><g opacity="1" transform="matrix(1,0,0,1,322.50000000000006,145)"><g opacity="1" transform="matrix(1,0,0,1,313.974,198.726)"><path fill="rgb(196,211,219)" fill-opacity="1" d="M0 0 M-5.324,2.467 C-4.718,3.7750000000000004 -1.843,3.731 1.097,2.368 C4.037,1.0059999999999998 5.929,-1.159 5.323,-2.468 C4.7170000000000005,-3.776 1.8419999999999999,-3.731 -1.098,-2.368 C-4.038,-1.0059999999999998 -5.93,1.159 -5.324,2.467z"></path></g></g><g opacity="1" transform="matrix(1,0,0,1,322.50000000000006,145.00000000000003)"><g opacity="1" transform="matrix(1,0,0,1,284.094,217.968)"><path fill="rgb(196,211,219)" fill-opacity="1" d="M0 0 M-12.257,8.75 C-10.737,10.879 -4.018000000000001,8.687000000000001 2.751,3.854 C9.520999999999999,-0.9790000000000001 13.777,-6.622999999999999 12.257,-8.751 C10.737,-10.879999999999999 4.017,-8.687000000000001 -2.752,-3.854 C-9.521,0.9779999999999998 -13.777,6.622 -12.257,8.75z"></path></g></g><g opacity="1" transform="matrix(1,0,0,1,322.49999999999994,145)"><g opacity="1" transform="matrix(1,0,0,1,258.513,249.208)"><path fill="rgb(196,211,219)" fill-opacity="1" d="M0 0 M-5.644,13.962 C-3.901,14.666 0.0389999999999997,8.986 3.155,1.274 C6.273,-6.436 7.386,-13.258999999999999 5.643,-13.963 C3.8999999999999995,-14.668 -0.040000000000000036,-8.987 -3.156,-1.276 C-6.273,6.4350000000000005 -7.3870000000000005,13.258 -5.644,13.962z"></path></g></g></g><g style="user-select: none; display: none;" transform="matrix(1,0,0,1,84.5,248)" opacity="1"><g opacity="1" transform="matrix(1,0,0,1,550.932,324.9)"><path style="display: none;" fill="rgb(17,17,17)" fill-opacity="1" d="M0 0 M4.445,33.656 C-18.022,34.832 -39.288000000000004,8.989000000000003 -46.743,-15.338 C-49.17,-23.259 -42.783,-30.393 -34.51,-30.826 C-34.51,-30.826 33.789,-34.399 33.789,-34.399 C42.061,-34.832 49.17,-28.416 47.776,-20.25 C43.519000000000005,4.68 26.902,32.481 4.445,33.656z"></path></g></g><g mask="url(#ly_EHc5uR3ewE)"><g style="user-select: none; display: none;" transform="matrix(1,0,0,1,82.5,249.00000000000006)" opacity="1"><g opacity="1" transform="matrix(1,0,0,1,563.223,369.359)"><path style="display: none;" fill="rgb(235,86,86)" fill-opacity="1" d="M0 0 M-34.62,-6.734 C-37.909,10.177999999999999 -25.076999999999998,26.903 -5.956,30.621 C13.164000000000001,34.341 31.330999999999996,23.646 34.62,6.734 C37.909,-10.177999999999999 25.076,-26.903 5.956,-30.622 C-13.165,-34.34 -31.33,-23.646 -34.62,-6.734z"></path></g></g></g><g mask="url(#ly_Z6ko1zVGuc)"><g style="user-select: none; display: none;" transform="matrix(1,0,0,1,-240,104)" opacity="1"><g opacity="1" transform="matrix(1,0,0,1,322.5,145)"><g opacity="1" transform="matrix(1,0,0,1,577.742,308.935)"><path style="display: none;" fill="rgb(237,237,237)" fill-opacity="1" d="M0 0 M3.539,6.405 C3.124,8.286 0.551,8.55 -0.238,6.793 C-0.238,6.793 -6.571,-7.314 -6.571,-7.314 C-6.571,-7.314 4.121,-8.411 4.121,-8.411 C5.476000000000001,-8.549999999999999 6.572,-7.321999999999999 6.277,-5.991 C6.277,-5.991 3.539,6.405 3.539,6.405z"></path></g></g><g opacity="1" transform="matrix(1,0,0,1,322.5,145)"><g opacity="1" transform="matrix(1,0,0,1,545.978,295.781)"><path style="display: none;" fill="rgb(237,237,237)" fill-opacity="1" d="M0 0 M39.222,-16.029 C39.222,-16.029 -40.614,-11.854 -40.614,-11.854 C-40.614,-11.854 -39.309,13.103 -39.309,13.103 C-39.221999999999994,14.757 -37.81099999999999,16.029 -36.157,15.942 C-36.157,15.942 37.688,12.08 37.688,12.08 C39.342,11.994 40.614000000000004,10.582 40.527,8.928 C40.527,8.928 39.222,-16.029 39.222,-16.029z"></path></g></g></g></g><g transform="matrix(1,0,0,1,599,570)" opacity="1" style="user-select: none; display: block;"><g opacity="1" transform="matrix(1,0,0,1,49.011,13.766)"><path fill="rgb(237,237,237)" fill-opacity="1" d="M0 0 M2.12,6.446 C1.5150000000000001,8.275 -1.072,8.275 -1.678,6.446 C-1.678,6.446 -6.538,-8.234 -6.538,-8.234 C-6.538,-8.234 4.211,-8.234 4.211,-8.234 C5.574,-8.234 6.538,-6.899000000000001 6.109,-5.605 C6.109,-5.605 2.12,6.446 2.12,6.446z" style="display: block;"></path></g><g opacity="1" transform="matrix(1,0,0,1,35.775,8.451)"><path fill="rgb(237,237,237)" fill-opacity="1" d="M0 0 M1.806,3.859 C1.082,5.379 -1.0819999999999999,5.379 -1.805,3.859 C-1.805,3.859 -6.205,-5.38 -6.205,-5.38 C-6.205,-5.38 6.205,-5.38 6.205,-5.38 C6.205,-5.38 1.806,3.859 1.806,3.859z" style="display: block;"></path></g><g opacity="1" transform="matrix(1,0,0,1,33.037,6.436)"><path fill="rgb(17,17,17)" fill-opacity="1" d="M0 0 M31.076,1.52 C32.066,2.009 32.472,3.2089999999999996 31.982,4.199 C31.492,5.189 30.293,5.595000000000001 29.303,5.105 C29.303,5.105 31.076,1.52 31.076,1.52zM0 0 M-30.208,-0.867 C-31.308,-0.771 -32.278000000000006,-1.5830000000000002 -32.374,-2.684 C-32.471000000000004,-3.7840000000000003 -31.657,-4.755 -30.557,-4.852 C-30.557,-4.852 -30.208,-0.867 -30.208,-0.867zM0 0 M29.303,5.105 C19.867,0.4380000000000006 5.123,-1.111 -7.546,-1.434 C-13.834,-1.595 -19.487,-1.453 -23.604,-1.27 C-25.656,-1.179 -27.304000000000002,-1.077 -28.452,-0.999 C-29.023000000000003,-0.959 -29.461000000000002,-0.927 -29.762,-0.904 C-29.91,-0.892 -30.022,-0.883 -30.098,-0.876 C-30.134999999999998,-0.874 -30.163,-0.871 -30.182,-0.87 C-30.191,-0.869 -30.198,-0.867 -30.202,-0.867 C-30.205000000000002,-0.867 -30.205,-0.867 -30.206,-0.867 C-30.206,-0.867 -30.208,-0.867 -30.208,-0.867 C-30.208,-0.867 -30.383,-2.859 -30.383,-2.859 C-30.558,-4.852 -30.557,-4.852 -30.557,-4.852 C-30.557,-4.852 -30.555,-4.852 -30.555,-4.852 C-30.553,-4.852 -30.551,-4.852 -30.548,-4.852 C-30.543,-4.852 -30.533,-4.853 -30.523,-4.854 C-30.502,-4.855 -30.471,-4.859000000000001 -30.43,-4.863 C-30.351,-4.869000000000001 -30.231,-4.878 -30.076,-4.891 C-29.769000000000002,-4.915 -29.309,-4.95 -28.725,-4.99 C-27.562,-5.069 -25.866,-5.173 -23.781,-5.266 C-19.625,-5.45 -13.833,-5.594 -7.445,-5.432 C5.24,-5.109 20.78,-3.573 31.076,1.52 C31.076,1.52 29.303,5.105 29.303,5.105z" style="display: block;"></path></g></g><g style="user-select: none; display: none;" transform="matrix(1,0,0,1,727.946,519.683)" opacity="1"><g opacity="1" transform="matrix(1,0,0,1,26.054,47.317)"><path style="display: none;" fill="rgb(53,80,93)" fill-opacity="1" d="M0 0 M25.754,0 C25.754,22.774 14.224,41.237 0,41.237 C-14.224,41.237 -25.754,22.774 -25.754,0 C-25.754,-22.775 -14.224,-41.237 0,-41.237 C14.224,-41.237 25.754,-22.775 25.754,0z"></path></g><g opacity="1" transform="matrix(1,0,0,1,26.054,41.317)"><path style="display: none;" fill="rgb(88,108,118)" fill-opacity="1" d="M0 0 M25.754,0 C25.754,22.774 14.224,41.237 0,41.237 C-14.224,41.237 -25.754,22.774 -25.754,0 C-25.754,-22.775 -14.224,-41.237 0,-41.237 C14.224,-41.237 25.754,-22.775 25.754,0z"></path></g><g opacity="1" transform="matrix(1,0,0,1,26.077,41.309)"><path style="display: none;" fill="rgb(17,17,17)" fill-opacity="1" d="M0 0 M13.577,0 C13.577,12.006 7.497,21.739 -0.001,21.739 C-7.4990000000000006,21.739 -13.577,12.006 -13.577,0 C-13.577,-12.006 -7.4990000000000006,-21.739 -0.001,-21.739 C7.497,-21.739 13.577,-12.006 13.577,0z"></path></g></g><g style="user-select: none; display: none;" transform="matrix(1,0,0,1,568,1330.5)" opacity="1"><g opacity="1" transform="matrix(1,0,0,1,31.878,59.015)"><path style="display: none;" fill="rgb(0,0,0)" fill-opacity="1" d="M0 0 M-2.354,4.402 C-2.354,4.402 -1.857,4.462 -1.857,4.462 C-1.857,4.462 -1.857,4.46 -1.857,4.46 C-1.857,4.458 -1.8579999999999999,4.454 -1.857,4.449 C-1.856,4.439 -1.853,4.425 -1.85,4.406 C-1.844,4.364999999999999 -1.837,4.307 -1.824,4.23 C-1.7970000000000002,4.071000000000001 -1.7550000000000001,3.85 -1.691,3.568 C-1.562,2.996 -1.355,2.227 -1.012,1.365 C-0.32300000000000006,-0.377 0.8220000000000001,-2.359 2.852,-3.616 C2.852,-3.616 2.32,-4.462 2.32,-4.462 C0.10399999999999965,-3.054 -1.221,-0.8150000000000001 -1.941,0.997 C-2.302,1.912 -2.533,2.753 -2.667,3.346 C-2.734,3.648 -2.781,3.8979999999999997 -2.809,4.066 C-2.823,4.151 -2.834,4.219 -2.84,4.264 C-2.843,4.288 -2.846,4.308000000000001 -2.848,4.32 C-2.8489999999999998,4.327 -2.849,4.331 -2.85,4.335 C-2.85,4.336 -2.85,4.338 -2.85,4.339 C-2.85,4.339 -2.85,4.34 -2.85,4.34 C-2.85,4.34 -2.852,4.34 -2.852,4.34 C-2.852,4.34 -2.851,4.3420000000000005 -2.354,4.402z"></path></g><g opacity="1" transform="matrix(1,0,0,1,44.973,59.017)"><path style="display: none;" fill="rgb(0,0,0)" fill-opacity="1" d="M0 0 M-1.128,4.857 C-0.6339999999999999,4.782 -0.633,4.783 -0.633,4.783 C-0.633,4.783 -0.633,4.781 -0.633,4.781 C-0.633,4.778 -0.635,4.776 -0.635,4.771 C-0.637,4.761 -0.639,4.749 -0.641,4.729 C-0.647,4.687 -0.653,4.6290000000000004 -0.661,4.551 C-0.678,4.391 -0.699,4.167 -0.712,3.878 C-0.741,3.2920000000000003 -0.746,2.497 -0.646,1.574 C-0.448,-0.2889999999999999 0.125,-2.504 1.745,-4.258 C1.745,-4.258 1.006,-4.933 1.006,-4.933 C-0.752,-2.984 -1.432,-0.47099999999999986 -1.641,1.467 C-1.745,2.4450000000000003 -1.74,3.319 -1.71,3.926 C-1.695,4.235 -1.674,4.487 -1.656,4.656 C-1.648,4.742 -1.639,4.812 -1.633,4.857 C-1.6300000000000001,4.88 -1.628,4.899 -1.626,4.911 C-1.625,4.917999999999999 -1.624,4.922000000000001 -1.624,4.926 C-1.6230000000000002,4.9270000000000005 -1.622,4.928999999999999 -1.622,4.93 C-1.622,4.93 -1.622,4.932 -1.622,4.932 C-1.622,4.932 -1.128,4.857 -1.128,4.857z"></path></g><g opacity="1" transform="matrix(1,0,0,1,57.608,59.132)"><path style="display: none;" fill="rgb(0,0,0)" fill-opacity="1" d="M0 0 M1.221,4.768 C1.221,4.768 1.641,4.497 1.641,4.497 C1.641,4.497 1.641,4.496 1.641,4.496 C1.6400000000000001,4.494000000000001 1.638,4.492 1.635,4.488 C1.6300000000000001,4.479 1.623,4.467 1.613,4.451 C1.592,4.415 1.5599999999999998,4.366 1.521,4.297 C1.44,4.159 1.33,3.96 1.199,3.703 C0.933,3.1799999999999997 0.604,2.455 0.318,1.573 C-0.26299999999999996,-0.20799999999999996 -0.644,-2.463 0.117,-4.726 C0.117,-4.726 -0.833,-5.039 -0.833,-5.039 C-1.641,-2.542 -1.2349999999999999,0.028999999999999915 -0.633,1.882 C-0.328,2.818 0.03199999999999997,3.6129999999999995 0.307,4.156 C0.44799999999999995,4.431 0.5710000000000001,4.6530000000000005 0.656,4.799 C0.7000000000000001,4.8740000000000006 0.736,4.935 0.76,4.973 C0.772,4.994 0.783,5.0089999999999995 0.79,5.02 C0.793,5.026 0.796,5.03 0.798,5.033 C0.799,5.035 0.799,5.036 0.799,5.037 C0.8,5.037 0.801,5.038 0.801,5.038 C0.801,5.038 0.801,5.039 0.801,5.039 C0.802,5.039 0.8010000000000002,5.039 1.221,4.768z"></path></g><g opacity="1" transform="matrix(1,0,0,1,72.22,37.556)"><path style="display: none;" fill="rgb(17,17,17)" fill-opacity="1" d="M0 0 M-71.22,-1.047 C-71.22,-1.047 -71.416,-2.028 -71.416,-2.028 C-71.416,-2.028 -71.11,-0.053 -71.11,-0.053 C-71.11,-0.053 -71.22,-1.047 -71.22,-1.047zM0 0 M49.28,-30.547 C55.731,-30.547 60.747,-26.573 64.19,-20.338 C67.67999999999999,-14.043000000000001 69.42699999999999,-5.728999999999999 69.374,2.695 C69.32799999999999,11.102 67.454,19.408 63.721,25.512 C60.007999999999996,31.584 54.498999999999995,35.434 47.062,35.198 C47.062,35.198 46.999,37.197 46.999,37.197 C55.312000000000005,37.462 61.428999999999995,33.094 65.428,26.556 C69.404,20.054000000000002 71.327,11.36 71.374,2.706 C71.416,-5.931000000000001 69.555,-14.739999999999998 65.941,-21.304 C62.283,-27.927 56.705,-32.547 49.28,-32.547 C49.28,-32.547 49.28,-30.547 49.28,-30.547zM0 0 M47.062,35.198 C31.546999999999997,34.734 20.648,28.641000000000002 10.155,22.585 C-0.3370000000000015,16.528 -10.452000000000002,10.49 -23.969,10.453 C-23.969,10.453 -23.969,12.453 -23.969,12.453 C-10.986,12.417 -1.3519999999999985,18.250999999999998 9.156,24.316 C19.663,30.381999999999998 31.015,36.662000000000006 46.999,37.197 C46.999,37.197 47.062,35.198 47.062,35.198zM0 0 M-23.969,10.453 C-45.521,10.453 -57.741,22.986 -70.214,30.079 C-70.214,30.079 -69.226,31.817 -69.226,31.817 C-56.199,24.41 -44.817,12.453 -23.969,12.453 C-23.969,12.453 -23.969,10.453 -23.969,10.453zM0 0 M-71.11,-0.053 C-68.748,-0.315 -65.206,-0.249 -60.747,-0.084 C-56.284,0.082 -50.954,0.349 -45.098,0.489 C-33.391999999999996,0.767 -19.522,0.5269999999999997 -6.277,-2.071 C-6.277,-2.071 -6.663,-4.033 -6.663,-4.033 C-19.733,-1.4620000000000002 -33.385999999999996,-1.233 -45.05,-1.51 C-50.879999999999995,-1.649 -56.197,-1.916 -60.673,-2.082 C-65.152,-2.2489999999999997 -68.83999999999999,-2.312 -71.329,-2.041 C-71.329,-2.041 -71.11,-0.053 -71.11,-0.053zM0 0 M-6.277,-2.071 C7.983,-4.911 15.884999999999998,-12.183999999999997 23.185,-18.612 C30.473,-25.028 37.167,-30.547 49.28,-30.547 C49.28,-30.547 49.28,-32.547 49.28,-32.547 C36.378,-32.547 29.197000000000003,-26.569 21.864,-20.113 C14.544,-13.668 7.077,-6.694000000000001 -6.663,-4.033 C-6.663,-4.033 -6.277,-2.071 -6.277,-2.071z"></path></g><g opacity="1" transform="matrix(1,0,0,1,75.891,40.382)"><path style="display: none;" fill="rgb(237,237,237)" fill-opacity="1" d="M0 0 M43.405,33.372 C74.906,34.372 73.405,-34.372 45.655,-34.372 C20.64,-34.372 20.104000000000003,-12.307 -4.095,-6.128 C-27.595,-0.1280000000000001 -54.12299999999999,-2.025 -67.356,-3.533 C-67.356,1.9970000000000003 -68.109,9.065999999999999 -67.356,13.818 C-67.356,13.818 -47.97,14.872 -47.97,14.872 C-47.97,14.872 -22.72,14.872 -6.451,13.818 C4.905,18.497 27.147000000000002,32.855 43.405,33.372z"></path></g><g opacity="1" transform="matrix(1,0,0,1,62.928,49.959)"><path style="display: none;" fill="rgb(0,0,0)" fill-opacity="1" d="M0 0 M-54.176,4.041 C-54.176,4.041 -54.667,4.133 -54.667,4.133 C-54.667,4.133 -54.598,4.506 -54.598,4.506 C-54.598,4.506 -54.219,4.539 -54.219,4.539 C-54.219,4.539 -54.176,4.041 -54.176,4.041zM0 0 M38.324,1.041 C38.324,1.041 38.702,0.714 38.702,0.714 C38.702,0.714 38.525,0.509 38.525,0.509 C38.525,0.509 38.257,0.546 38.257,0.546 C38.257,0.546 38.324,1.041 38.324,1.041zM0 0 M48.074,12.291 C48.074,12.291 47.696,12.618 47.696,12.618 C47.696,12.618 48.259,13.267 48.259,13.267 C48.259,13.267 48.546,12.458 48.546,12.458 C48.546,12.458 48.074,12.291 48.074,12.291zM0 0 M-54.176,-13.209 C-54.673,-13.267 -54.673,-13.267 -54.673,-13.267 C-54.673,-13.267 -54.673,-13.266 -54.673,-13.266 C-54.673,-13.266 -54.673,-13.265 -54.673,-13.265 C-54.673,-13.263 -54.673,-13.261 -54.674,-13.258 C-54.674,-13.252999999999998 -54.675000000000004,-13.245 -54.676,-13.235 C-54.679,-13.213999999999999 -54.682,-13.183 -54.686,-13.143 C-54.695,-13.063 -54.708,-12.944 -54.724,-12.791 C-54.75599999999999,-12.486 -54.8,-12.042 -54.849,-11.488 C-54.946,-10.386 -55.062999999999995,-8.84 -55.141,-7.089 C-55.296,-3.5930000000000004 -55.294000000000004,0.7759999999999998 -54.667,4.133 C-54.667,4.133 -53.684,3.949 -53.684,3.949 C-54.299,0.685 -54.29600000000001,-3.5709999999999997 -54.142,-7.045 C-54.065000000000005,-8.779 -53.949,-10.304 -53.852,-11.401 C-53.803999999999995,-11.948 -53.760999999999996,-12.385 -53.729,-12.688 C-53.714,-12.838000000000001 -53.701,-12.953999999999999 -53.693,-13.033 C-53.687999999999995,-13.072 -53.685,-13.102 -53.683,-13.122 C-53.682,-13.132 -53.681,-13.139 -53.68,-13.144 C-53.68,-13.146 -53.68,-13.148 -53.68,-13.149 C-53.68,-13.149999999999999 -53.679,-13.15 -53.679,-13.151 C-53.679,-13.151 -54.176,-13.209 -54.176,-13.209zM0 0 M-54.219,4.539 C-32.689,6.4159999999999995 -9.526,5.665 8.233,4.446 C17.115000000000002,3.836 24.656000000000002,3.1079999999999997 29.972,2.534 C32.63,2.247 34.735,1.997 36.174,1.82 C36.894999999999996,1.731 37.448,1.66 37.822,1.611 C38.009,1.588 38.151,1.568 38.247,1.556 C38.295,1.55 38.330999999999996,1.545 38.355,1.541 C38.367,1.54 38.376,1.538 38.382,1.538 C38.385999999999996,1.5370000000000001 38.388000000000005,1.537 38.389,1.537 C38.39,1.536 38.391,1.536 38.391,1.536 C38.391999999999996,1.536 38.391999999999996,1.536 38.324,1.041 C38.257,0.5459999999999999 38.256,0.546 38.256,0.546 C38.256,0.546 38.254,0.546 38.254,0.546 C38.253,0.546 38.251,0.547 38.248,0.547 C38.242,0.548 38.233,0.549 38.221,0.551 C38.196999999999996,0.554 38.162,0.5589999999999999 38.114,0.564 C38.019999999999996,0.577 37.879,0.596 37.693,0.62 C37.32,0.669 36.769999999999996,0.739 36.052,0.827 C34.615,1.005 32.518,1.2530000000000001 29.864,1.54 C24.555,2.114 17.033,2.84 8.165,3.448 C-9.576,4.667 -32.662,5.416 -54.132,3.543 C-54.132,3.543 -54.219,4.539 -54.219,4.539zM0 0 M37.946,1.368 C37.946,1.368 47.696,12.618 47.696,12.618 C47.696,12.618 48.451,11.964 48.451,11.964 C48.451,11.964 38.702,0.714 38.702,0.714 C38.702,0.714 37.946,1.368 37.946,1.368zM0 0 M48.546,12.458 C48.546,12.458 55.296,-6.542 55.296,-6.542 C55.296,-6.542 54.353,-6.876 54.353,-6.876 C54.353,-6.876 47.603,12.124 47.603,12.124 C47.603,12.124 48.546,12.458 48.546,12.458z"></path></g></g><g></g><g style="display: none;"><g><path stroke-linecap="butt" stroke-linejoin="miter" fill-opacity="0" stroke-miterlimit="4" style="display: none;"></path><g></g></g><g><g><g></g></g><g><g></g></g><g><g></g></g></g></g><g style="display: none;"><g><path stroke-linecap="butt" stroke-linejoin="miter" fill-opacity="0" stroke-miterlimit="4" style="display: none;"></path><g></g></g><g><g><g></g></g><g><g></g></g><g><g></g></g></g></g><g style="display: none;"><g><path stroke-linecap="butt" stroke-linejoin="miter" fill-opacity="0" stroke-miterlimit="4" stroke-dasharray=" 14" stroke-dashoffset="0" style="display: none;"></path></g></g><g style="display: none;"><rect width="75" height="75" fill="#ffffff"></rect></g><g class="ai" style="display: none;"></g></g></g><g mask="url(#ly_xPyLjN435O)"><g style="user-select: none; display: block;" transform="matrix(1.45,0,0,1.45,375.715,1.1350000000000051)" opacity="1"><g opacity="1" transform="matrix(1,0,0,1,127.3,79)"><path style="display: block;" fill="rgb(222,87,51)" fill-opacity="1" d="M0 0 M-0.001,-51.1 C28.221,-51.1 51.1,-28.222 51.1,0 C51.1,28.222 28.221,51.1 -0.001,51.1 C-28.223000000000003,51.1 -51.1,28.222 -51.1,0 C-51.1,-28.222 -28.223000000000003,-51.1 -0.001,-51.1z"></path></g><g opacity="1" transform="matrix(1,0,0,1,123.65,84.551)"><path style="display: block;" fill="rgb(212,214,215)" fill-opacity="1" d="M0 0 M24.65,70.65 C22.849999999999998,62.35000000000001 12.35,43.65 8.45,35.65 C4.449999999999999,27.75 0.55,16.549 2.35,9.35 C2.65,8.049999999999999 -1.05,-1.95 -0.05,-2.65 C8.35,-8.15 10.549999999999999,-2.05 13.95,-4.55 C15.649999999999999,-5.85 18.049999999999997,-3.5500000000000003 18.65,-5.65 C20.849999999999998,-13.25 15.649999999999999,-26.45 9.85,-32.15 C7.949999999999999,-34.05 5.050000000000001,-35.25 1.85,-35.85 C0.55,-37.550000000000004 -1.4500000000000002,-39.25 -4.25,-40.75 C-7.45,-42.45 -14.35,-44.65 -17.95,-45.25 C-20.45,-45.65 -21.05,-44.95 -22.05,-44.75 C-21.05,-44.65 -16.349999999999998,-42.35 -15.45,-42.25 C-16.349999999999998,-41.65 -19.05,-42.25 -20.75,-41.55 C-21.65,-41.15 -22.25,-39.650000000000006 -22.25,-38.95 C-17.35,-39.45 -9.65,-38.95 -5.15,-36.95 C-8.75,-36.550000000000004 -14.25,-36.050000000000004 -16.55,-34.85 C-23.35,-31.25 -26.45,-22.85 -24.65,-12.75 C-22.849999999999998,-2.6500000000000004 -14.95,34.049 -12.35,46.35 C-9.85,58.650000000000006 -17.75,66.549 -22.85,68.75 C-22.85,68.75 -17.45,69.15 -17.45,69.15 C-17.45,69.15 -19.25,73.15 -19.25,73.15 C-12.75,73.85000000000001 -5.55,71.75 -5.55,71.75 C-6.949999999999999,75.75 -16.75,77.15 -16.75,77.15 C-16.75,77.15 -12.05,78.549 -4.45,75.75 C3.1499999999999995,72.85 7.85,71.049 7.85,71.049 C7.85,71.049 11.45,80.45 11.45,80.45 C11.45,80.45 18.35,73.65 18.35,73.65 C18.35,73.65 21.251,80.85 21.251,80.85 C21.05,80.75 26.45,78.95 24.65,70.65z"></path></g><g opacity="1" transform="matrix(1,0,0,1,125.8,84.2)"><path style="display: block;" fill="rgb(255,255,255)" fill-opacity="1" d="M0 0 M24.7,69.3 C22.9,61 12.4,42.3 8.5,34.3 C4.5,26.4 0.5999999999999999,15.2 2.4,8 C2.6999999999999997,6.7 2.6999999999999997,1.2999999999999998 3.8,0.6 C12.2,-4.9 11.6,0.399 15,-2.001 C16.7,-3.301 18.099999999999998,-4.800000000000001 18.7,-6.9 C20.9,-14.5 15.7,-27.7 9.9,-33.4 C8,-35.3 5.1,-36.5 1.9,-37.1 C0.5999999999999999,-38.800000000000004 -1.4000000000000004,-40.501 -4.2,-42.001 C-9.600000000000001,-44.900999999999996 -16.3,-46 -22.5,-44.9 C-21.5,-44.8 -19.2,-42.800000000000004 -18.3,-42.6 C-19.7,-41.7 -23.400000000000002,-41.801 -23.3,-39.701 C-18.4,-40.201 -13,-39.4 -8.5,-37.4 C-12.1,-37 -15.5,-36.1 -17.8,-34.9 C-24.700000000000003,-31.299999999999997 -26.5,-24.101 -24.7,-14.001 C-22.9,-3.901 -15,32.900000000000006 -12.4,45.1 C-9.9,57.400000000000006 -17.8,65.3 -22.8,67.5 C-22.8,67.5 -17.4,67.9 -17.4,67.9 C-17.4,67.9 -19.2,71.9 -19.2,71.9 C-12.7,72.60000000000001 -5.5,70.5 -5.5,70.5 C-6.9,74.5 -16.7,75.9 -16.7,75.9 C-16.7,75.9 -12,77.3 -4.4,74.5 C3.1999999999999993,71.6 7.9,69.8 7.9,69.8 C7.9,69.8 11.5,79.2 11.5,79.2 C11.5,79.2 18.4,72.3 18.4,72.3 C18.4,72.3 21.3,79.5 21.3,79.5 C21.1,79.4 26.5,77.6 24.7,69.3z"></path></g><g opacity="1" transform="matrix(1,0,0,1,112.8,70.7)"><path style="display: block;" fill="rgb(44,79,142)" fill-opacity="1" d="M0 0 M-3.8,0 C-3.8,-2.1 -2.1,-3.8 0,-3.8 C2.1,-3.8 3.8,-2.1 3.8,0 C3.8,2.1 2.1,3.8 0,3.8 C-2.1,3.8 -3.8,2.1 -3.8,0z"></path></g><g opacity="1" transform="matrix(1,0,0,1,114.5,69.4)"><path style="display: block;" fill="rgb(255,255,255)" fill-opacity="1" d="M0 0 M-1,0 C-1,-0.5 -0.6,-1 0,-1 C0.5,-1 1,-0.6 1,0 C1,0.5 0.6,1 0,1 C-0.6,1 -1,0.6 -1,0z"></path></g><g opacity="1" transform="matrix(1,0,0,1,138.2,68.45)"><path style="display: block;" fill="rgb(44,79,142)" fill-opacity="1" d="M0 0 M-3.3,-0.05 C-3.3,-1.85 -1.8,-3.25 0,-3.25 C1.8,-3.25 3.3,-1.75 3.3,-0.05 C3.3,1.75 1.8,3.25 0,3.25 C-1.901,3.25 -3.3,1.75 -3.3,-0.05z"></path></g><g opacity="1" transform="matrix(1,0,0,1,139.5,67.4)"><path style="display: block;" fill="rgb(255,255,255)" fill-opacity="1" d="M0 0 M-0.8,0 C-0.8,-0.5 -0.401,-0.8 0,-0.8 C0.5,-0.8 0.8,-0.4 0.8,0 C0.8,0.5 0.4,0.8 0,0.8 C-0.401,0.8 -0.8,0.4 -0.8,0z"></path></g><g opacity="1" transform="matrix(1,0,0,1,109,60.983)"><path style="display: block;" fill="rgb(127,127,127)" fill-opacity="1" d="M0 0 M-0.9,-2.183 C-4.9,-0.5829999999999997 -3.4,2.717 -3.4,2.717 C-3.4,2.717 -3.5,0.9169999999999999 -0.7,-0.783 C2,-2.583 4.9,-1.283 4.9,-1.283 C4.9,-1.283 3.809,-2.718 1.585,-2.718 C0.873,-2.718 0.04499999999999993,-2.5709999999999997 -0.9,-2.183z"></path></g><g opacity="1" transform="matrix(1,0,0,1,136.199,58.365)"><path style="display: block;" fill="rgb(127,127,127)" fill-opacity="1" d="M0 0 M-3.899,1.436 C-3.899,1.436 -2.9989999999999997,-0.066 0.301,-0.066 C1.801,-0.066 3.9,1.135 3.9,1.135 C3.9,1.135 3.101,-0.965 0.801,-1.365 C0.46,-1.414 0.144,-1.436 -0.15,-1.436 C-3.477,-1.436 -3.899,1.436 -3.899,1.436z"></path></g><g opacity="1" transform="matrix(1,0,0,1,147.95,84.9)"><path style="display: block;" fill="rgb(252,210,9)" fill-opacity="1" d="M0 0 M-23.55,0.4 C-23.150000000000002,-1.9 -17.25,-6.2 -13.05,-6.5 C-8.850000000000001,-6.8 -7.55,-6.7 -4.05,-7.5 C-0.5499999999999998,-8.3 8.45,-10.6 10.95,-11.7 C13.45,-12.899999999999999 24.05,-11.1 16.55,-7 C13.350000000000001,-5.2 4.65,-1.9 -1.65,0 C-7.85,1.9 -11.65,-1.8 -13.75,1.3 C-15.35,3.7 -14.05,7.1 -6.65,7.8 C3.3499999999999996,8.7 13.05,3.3000000000000003 14.05,6.2 C15.15,9.1 5.45,12.700000000000001 -0.45,12.8 C-6.3500000000000005,12.9 -18.25,8.9 -20.05,7.7 C-21.650000000000002,6.300000000000001 -24.05,3.4 -23.55,0.4z"></path></g><g opacity="1" transform="matrix(1,0,0,1,122,118.3)"><path style="display: block;" fill="rgb(100,187,70)" fill-opacity="1" d="M0 0 M6.901,-2.7 C6.901,-2.7 -7.2010000000000005,-10.2 -7.4,-7.2 C-7.6000000000000005,-4.099 -7.399000000000001,8.3 -5.799,9.3 C-4.2,10.200000000000001 7.6,3.2 7.6,3.2 C7.6,3.2 6.901,-2.7 6.901,-2.7z"></path></g><g opacity="1" transform="matrix(1,0,0,1,141.3,116.5)"><path style="display: block;" fill="rgb(100,187,70)" fill-opacity="1" d="M0 0 M-7,-1.401 C-7,-1.401 2.6000000000000005,-8.701 4.799,-8.201 C6.899000000000001,-7.7010000000000005 7.4,7.2989999999999995 5.5,7.999 C3.601,8.7 -7.399,4.201 -7.399,4.201 C-7.399,4.201 -7,-1.401 -7,-1.401z"></path></g><g opacity="1" transform="matrix(1,0,0,1,130.3,118.85)"><path style="display: block;" fill="rgb(67,161,68)" fill-opacity="1" d="M0 0 M-4.8,-2.449 C-4.8,2.45 -5.5,4.551 -3.4,5.051 C-1.2999999999999998,5.551 2.6999999999999997,5.051 4.1,4.151 C5.5,3.25 4.3,-3.1499999999999995 3.9,-4.35 C3.4,-5.551 -4.8,-4.55 -4.8,-2.449z"></path></g><g opacity="1" transform="matrix(1,0,0,1,131.2,117.75)"><path style="display: block;" fill="rgb(100,187,70)" fill-opacity="1" d="M0 0 M-4.8,-2.45 C-4.8,2.45 -5.5,4.651 -3.401,5.05 C-1.2999999999999998,5.55 2.7,5.05 4.099,4.151 C5.5,3.25 4.3,-3.1500000000000004 3.899,-4.349 C3.399,-5.550000000000001 -4.8,-4.550000000000001 -4.8,-2.45z"></path></g></g></g></g></svg>
