<svg xmlns="http://www.w3.org/2000/svg" width="1100" height="800" viewBox="0 0 1100 800" style="width:100%;height:100%"><defs><clipPath id="a"><path d="M0 0h1100v800H0z"/></clipPath><clipPath id="l"><path d="M0 0h1100v800H0z"/></clipPath><mask id="k"><path fill="#111" d="M-147.958-57.085c3.419-10.965 15.936-15.676 26.866-12.149 17.428 5.624 45.386 12.01 79.542 10.445C6.616-60.995 84.846-95.13 111.519-107.381c5.851-2.687 12.636-2.459 17.203 2.08 10.512 10.445 27.983 35.38 30.349 87.05 1.075 23.468-.083 51.48-1.378 72.3-1.115 17.933-14.542 32.456-32.277 35.334-40.319 6.54-111.887 17.282-154.567 18.625-37.583 1.183-73.075-1.945-96.915-4.904-17.795-2.209-31.04-16.826-31.967-34.734-1.107-21.408-1.971-50.101-.356-72.079 1.547-21.032 6.264-40.011 10.431-53.376z" display="block" transform="matrix(1 0 0 .265 640 558.877)" style="user-select:none"/></mask><mask id="h"><path fill="#111" d="M-147.958-57.085c3.419-10.965 15.936-15.676 26.866-12.149 17.428 5.624 45.386 12.01 79.542 10.445C6.616-60.995 84.846-95.13 111.519-107.381c5.851-2.687 12.636-2.459 17.203 2.08 10.512 10.445 27.983 35.38 30.349 87.05 1.075 23.468-.083 51.48-1.378 72.3-1.115 17.933-14.542 32.456-32.277 35.334-40.319 6.54-111.887 17.282-154.567 18.625-37.583 1.183-73.075-1.945-96.915-4.904-17.795-2.209-31.04-16.826-31.967-34.734-1.107-21.408-1.971-50.101-.356-72.079 1.547-21.032 6.264-40.011 10.431-53.376z" display="block" transform="matrix(1 0 0 .265 640 558.877)" style="user-select:none"/></mask><mask id="g"><path fill="#35505D" d="M240.507 49.87c-2.843 108.4-116.804 102.832-238.414 104.963-99.794-1.523-242.721-12.17-239.878-120.57 2.843-108.401 97.88-192.533 249.296-188.561C162.927-150.328 243.35-58.53 240.507 49.87z" transform="matrix(1 0 0 1.417 638.872 525.043)" style="user-select:none"/></mask><mask id="f"><path fill="#6ECE97" d="M52.614-50.86V50.86H-52.614V-50.86H52.614z" transform="translate(442.328 216.204)" style="user-select:none"/></mask><mask id="e"><path fill="#6ECE97" d="M52.614-50.86V50.86H-52.614V-50.86H52.614z" transform="translate(623.085 215.603)" style="user-select:none"/></mask><clipPath id="d"><path d="M0 0h1100v800H0z"/></clipPath><clipPath id="b"><path fill="#fff" d="M-293.131-256.131v510h750v-510h-750"/></clipPath></defs><g clip-path="url(#a)"><g style="user-select:none"><path fill="#F1F1F1" d="M1131.024-30.913999999999987v861.828H-31.024V-30.914h1162.046z"/><path stroke="#DA5A40" stroke-width="20" d="M1131.024-30.913999999999987v861.828H-31.024V-30.914h1162.046z" fill="none"/></g><g clip-path="url(#b)" transform="translate(468.131 456.131)" opacity=".33" style="user-select:none"><path fill="#60A4DA" d="M81.869-256.131c206.962 0 375 168.038 375 375 0 206.963-168.038 375-375 375s-375-168.038-375-375 168.038-375 375-375z"/></g><g style="user-select:none"><path fill="#522D5F" d="M148.67000000000002 541.287c-2.754-23.757 15.817-44.604 39.734-44.604h33.049c20.309 0 37.395 15.218 39.735 35.393l20.727 178.818c2.753 23.758-15.819 44.605-39.735 44.605h-33.049c-20.31 0-37.396-15.219-39.734-35.393L148.67 541.287z"/><path fill="#6F4780" d="M166.67000000000002 541.287c-2.754-23.757 15.817-44.604 39.734-44.604h33.049c20.309 0 37.395 15.218 39.735 35.393l20.727 178.818c2.753 23.758-15.819 44.605-39.735 44.605h-33.049c-20.31 0-37.396-15.219-39.734-35.393L166.67 541.287z"/></g><g style="user-select:none"><g><path stroke-linecap="round" stroke-linejoin="round" stroke="#34505D" stroke-width="36" d="M638.105 187.999c3.183-.018 77.885.164 115.094 56.454 37.21 56.29 8.107 125.09 6.843 128.012" fill="none"/><g><path stroke-linecap="round" stroke-linejoin="round" stroke="#586D76" stroke-width="12" d="M648.105 172.999c3.183-.018 77.885.164 115.094 56.454 37.21 56.29 8.107 125.09 6.843 128.012" fill="none"/></g></g></g><g style="user-select:none"><g><path stroke-linecap="round" stroke-linejoin="round" stroke="#34505D" stroke-width="36" d="M459.346 195.605c3.12-.018 78 .16 104.856 59.008 26.855 58.848-22.077 115.529-24.135 117.873" fill="none"/><g><path stroke-linecap="round" stroke-linejoin="round" stroke="#586D76" stroke-width="12" d="M469.346 180.605c3.12-.018 78 .16 104.856 59.008 26.855 58.848-22.077 115.529-24.135 117.873" fill="none"/></g></g></g><path fill="#35505D" d="M644.6850000000001 216.87800000000001c-14.622 5.532-30.961-1.836-36.495-16.458-5.532-14.623 1.838-30.961 16.46-36.493 14.622-5.533 30.96 1.835 36.492 16.458 5.533 14.621-1.835 30.96-16.457 36.493z" style="user-select:none"/><g mask="url(#e)"><path fill="#FFF" d="M634.7729999999999 208.333c-11.335 4.288-24.002-1.423-28.29-12.759-4.29-11.335 1.422-24.001 12.758-28.29 11.336-4.29 24.001 1.422 28.29 12.759 4.29 11.334-1.423 24-12.758 28.29z" style="user-select:none"/></g><path fill="#111" d="M619.506 206.065a5.665 5.665 0 1 1-4.01-10.597 5.665 5.665 0 0 1 4.01 10.597z" style="user-select:none"/><path fill="#35505D" d="M462.92900000000003 219.48000000000002c-14.622 5.532-30.961-1.836-36.495-16.458-5.532-14.623 1.838-30.961 16.46-36.493 14.622-5.533 30.96 1.835 36.492 16.458 5.533 14.621-1.835 30.96-16.457 36.493z" style="user-select:none"/><g mask="url(#f)"><path fill="#FFF" d="M453.016 210.934c-11.335 4.288-24.002-1.423-28.29-12.759-4.29-11.335 1.422-24.001 12.758-28.29 11.336-4.29 24.001 1.422 28.29 12.759 4.29 11.334-1.423 24-12.758 28.29z" style="user-select:none"/></g><path fill="#111" d="M437.749 208.667a5.665 5.665 0 1 1-4.01-10.597 5.665 5.665 0 0 1 4.01 10.597z" style="user-select:none"/><path fill="#35505D" d="M879.3789999999999 595.7090000000001c-2.843 153.603-116.804 145.713-238.414 148.733-99.794-2.159-242.721-17.245-239.878-170.848 2.843-153.604 97.88-272.82 249.296-267.191 151.416 5.625 231.839 135.703 228.996 289.306z" style="user-select:none"/><g mask="url(#g)"><path fill="#586C76" d="M836.494 595.487c-4.537 106.336-98.835 184.775-210.619 175.2-111.783-9.574-198.725-103.54-194.189-209.876 4.537-106.336 98.833-184.775 210.617-175.2 111.784 9.576 198.727 103.54 194.191 209.876z" style="user-select:none"/></g><g opacity=".75" style="user-select:none"><path fill="#C4D3DB" d="M676.436 327.71c-.276 2.983-4.417 5.11-9.25 4.753-4.832-.36-8.526-3.07-8.25-6.053.277-2.984 4.418-5.112 9.25-4.753 4.832.358 8.526 3.069 8.25 6.052zM737.7429999999999 340.26c-.466 3.49-10.791 4.618-23.061 2.52-12.271-2.099-21.84-6.629-21.376-10.118.467-3.49 10.792-4.619 23.063-2.519 12.27 2.097 21.84 6.628 21.374 10.118zM808.175 401.803c-.823 1.813-3.671 1.414-6.36-.892-2.69-2.304-4.203-5.643-3.38-7.457.824-1.813 3.671-1.413 6.36.893 2.69 2.304 4.203 5.643 3.38 7.456zM840.418 442.856c-1.87 2.89-8.172-1.051-14.077-8.801-5.906-7.75-9.178-16.375-7.308-19.262 1.87-2.888 8.172 1.054 14.078 8.804 5.905 7.748 9.177 16.372 7.307 19.26zM853.09 497.56399999999996c-1.85.81-4.802-7.829-6.592-19.299-1.793-11.467-1.744-21.422.106-22.233 1.85-.812 4.803 7.83 6.593 19.297 1.791 11.469 1.743 21.424-.107 22.235z"/></g><g style="user-select:none" display="block"><path fill="#EDEDED" d="M770.131 583.212c-.605 1.829-3.192 1.829-3.798 0l-4.86-14.68h10.749a2 2 0 0 1 1.898 2.629l-3.989 12.051zM756.581 575.3100000000001c-.724 1.52-2.888 1.52-3.611 0l-4.4-9.239h12.41l-4.399 9.239z" display="block"/><path fill="#111" d="M783.113 570.956a2 2 0 1 1-1.773 3.585l1.773-3.585zm-61.284-2.387a2 2 0 0 1-.349-3.985l.349 3.985zM781.34 574.541c-9.436-4.667-24.18-6.216-36.849-6.539a232.435 232.435 0 0 0-16.058.164 205.637 205.637 0 0 0-6.158.366l-.336.028-.084.006-.02.003h-.004-.002l-.175-1.992-.174-1.993H721.489a.343.343 0 0 0 .025-.002c.021-.001.052-.005.093-.009l.354-.028c.307-.024.767-.059 1.351-.099 1.163-.079 2.859-.183 4.944-.276 4.156-.184 9.948-.328 16.336-.166 12.685.323 28.225 1.859 38.521 6.952l-1.773 3.585z" display="block"/></g><g style="user-select:none" display="block" mask="url(#h)"><path fill="#EB5656" d="M798.285 625.007c6.08 24.802-44.436 58.498-112.83 75.265-68.394 16.766-128.767 10.254-134.847-14.547-6.08-24.802 44.436-58.498 112.829-75.265 68.396-16.766 128.769-10.254 134.848 14.547z" display="block"/><path fill="#FFF" d="M790.1999999999999 622.158a1.999 1.999 0 1 0 4 0h-4zm-69.776-15.672a2 2 0 1 0 .055 4l-.055-4zM739.089 610.756a2 2 0 0 0 .175-3.996l-.175 3.996zM781.662 612.69a2 2 0 1 0-1.178 3.822l1.178-3.822zM702.248 611.27c1.495-.112 3.007-.211 4.549-.3l-.231-3.994a284.62 284.62 0 0 0-4.615.305l.297 3.989zM720.479 610.486c1.512-.021 3.029-.032 4.567-.032v-4c-1.551 0-3.097.011-4.622.032l.055 4zM725.046 610.454c4.825 0 9.508.104 14.043.302l.175-3.996a326.88 326.88 0 0 0-14.218-.306v4zm55.438 6.058c3.416 1.05 5.934 2.121 7.679 3.296 1.756 1.172 2.037 1.997 2.037 2.35h4c0-2.44-1.767-4.31-3.817-5.677-2.06-1.365-5.105-2.675-8.721-3.791l-1.178 3.822z" display="block"/></g><g style="user-select:none"><g><path stroke-linecap="round" stroke-linejoin="round" stroke="#E4E4E4" stroke-width="40" d="M430.958 679.984c-1.675-.68-53.73-21.747-53.73-21.747s-24.422-50.57-25.209-52.197" fill="none"/><g><path stroke-linecap="round" stroke-linejoin="round" stroke="#FFF" stroke-width="28.5" d="M434.76 675.234l-51.044-20.659-23.948-49.587" fill="none"/></g></g></g><g style="user-select:none"><path fill="#FCB064" d="M450.35200000000003 669.706c6.267 5.419 6.953 14.891 1.534 21.157-5.42 6.265-14.891 6.952-21.158 1.533l19.624-22.69zm-20.946 21.546c-6.267-5.418-6.953-14.89-1.534-21.156 5.419-6.266 14.891-6.954 21.158-1.535l-19.624 22.691zM430.728 692.396l-1.322-1.144 19.624-22.691 1.322 1.145-19.624 22.69z"/><path fill="#FCB064" d="M440.45 674.157c12.554 0 22.924 8.496 24.533 19.509.239 1.639-1.126 2.991-2.783 2.991h-43.5c-1.657 0-3.022-1.352-2.783-2.991 1.609-11.013 11.979-19.509 24.533-19.509z"/></g><g style="user-select:none"><path fill="#1179B5" d="M278.72499999999997 588.101c2.859-10.669 13.825-17.001 24.494-14.142l48.689 13.046c10.669 2.859 17 13.825 14.141 24.494l-42.574 158.896c-2.859 10.669-13.826 17.001-24.496 14.142l-48.689-13.046c-10.669-2.859-17.001-13.826-14.142-24.495l42.577-158.895z"/><path fill="#2C9CDB" d="M302.324 594.415c2.859-10.669 13.826-17.001 24.495-14.142l25.127 6.732c10.669 2.859 17.001 13.826 14.141 24.495l-42.576 158.895c-2.858 10.67-13.825 17.001-24.494 14.143l-25.127-6.733c-10.669-2.859-17.001-13.826-14.142-24.495l42.576-158.895z"/><path fill="#F9F9F9" d="M319.93600000000004 587.6919999999999c.587-7.986 7.538-13.984 15.524-13.396l2.119.155c7.986.588 13.984 7.537 13.397 15.524-.587 7.986-7.538 13.985-15.524 13.397l-2.119-.156c-7.986-.587-13.984-7.537-13.397-15.524z"/><path fill="#EF9A43" d="M330.81100000000004 559.314c1.595-6.397 8.075-10.29 14.472-8.695 6.398 1.595 10.291 8.074 8.696 14.472l-5.666 22.719c-1.595 6.397-8.075 10.29-14.472 8.695-6.398-1.595-10.291-8.075-8.696-14.472l5.666-22.719z"/></g><g style="user-select:none"><path fill="#F8A34F" d="M337.747 523.884c2.107-10.843 12.606-17.924 23.45-15.816l29.448 5.724c10.842 2.109 17.924 12.608 15.815 23.45l-6.679 34.357c-3.689 18.975-22.062 31.366-41.037 27.678-18.974-3.69-31.365-22.062-27.676-41.037l6.679-34.356z"/><path fill="#FCB064" d="M353.656 538.911c2.108-10.843 12.605-17.924 23.449-15.816l30.87 6.001-8.933 45.956-50.504-9.817 5.118-26.324z"/><path fill="#AA6B2E" d="M333.048 548.1179999999999l59.817 11.63a9.063 9.063 0 0 1 7.167 10.624l-.238 1.226c-3.689 18.975-22.062 31.366-41.037 27.678-18.975-3.69-31.366-22.061-27.677-41.036l1.968-10.122z"/><path fill="#B17439" d="M350.956 551.615l41.838 8.135a9.062 9.062 0 0 1 7.167 10.625l-1.986 10.215c-2.723 14.01-16.29 23.16-30.299 20.436-14.01-2.723-23.16-16.29-20.436-30.299l3.715-19.112z"/><path fill="#412710" d="M406.113 476.37699999999995l-9.41-14.115s3.391 9.652-2.066 13.955c-2.702 2.131-4.621 4.35-5.947 6.575a13.284 13.284 0 0 0-4.07-6.818l-9.154-8.242s4.118 6.182 1.052 10.19c-1.007 1.315-1.766 2.597-2.318 3.837a13.442 13.442 0 0 0-3.348-2.864l-10.534-6.387s4.788 4.882 3.177 9.261c-7.902.544-17.117 2.54-23.859 8.118l-6.149 39.809 7.867 4.076 17.99-13.536s24.63 11.88 27.602 12.212c2.972.33 16.353.08 16.353.08l3.7 2.545s1.024-2.049 2.336-5.254c14.78-4.859 23.387-21.432 17.431-36.9l-9.305-24.162s1.83 15.505-7.733 20.095c-.231.11-.46.223-.686.336.61-4.275-.265-8.816-2.929-12.811z"/><path fill="#874B14" d="M421.826 505.09000000000003c-.614 4.387-3.428 9.327-7.997 13.288-6.705 5.813-14.962 7.587-19.78 4.609.093.12.19.238.292.355 4.277 4.933 13.466 3.97 20.525-2.148 5.453-4.728 8.04-11.152 6.96-16.104zM380.812 491.75100000000003c5 1.759 9.29 8.146 10.353 16.206.929 7.026-.84 13.46-4.207 16.979 5.695-1.747 9.276-9.426 8.142-18.018-1.225-9.26-7.464-16.076-13.937-15.222a8.485 8.485 0 0 0-.352.055z"/><path fill="#874B14" d="M410.466 493.077c1 5.412-.547 12.403-4.657 18.83-5.076 7.942-12.596 12.729-18.868 12.667 6.599 1.902 15.276-2.47 20.658-10.889 4.568-7.148 5.474-15.198 2.867-20.607z"/><path fill="#874B14" d="M362.789 494.73699999999997c5.492.351 11.892 3.559 17.123 9.112 6.461 6.862 9.269 15.322 7.677 21.39 3.456-5.935 1.332-15.417-5.517-22.69-5.817-6.175-13.401-9.02-19.283-7.812z"/><path fill="#F8A34F" d="M347.544 541.975c-1.173 6.031-7.013 9.97-13.043 8.797-6.032-1.172-9.971-7.012-8.798-13.044 1.172-6.03 7.013-9.97 13.043-8.797 6.032 1.172 9.97 7.012 8.798 13.044z"/><path fill="#D37018" d="M332.94100000000003 542.459a4.001 4.001 0 0 0 3.922-6.382 4.001 4.001 0 1 1-5.268 5.856c.4.249.856.43 1.346.526z"/><path fill="#111" d="M372.629 578.0269999999999a1 1 0 0 0 .901 1.787l-.9-1.787zm11.189 2.62a1 1 0 0 0 1.885-.67l-1.885.67zm-10.288-.833c4.56-2.3 7.117-1.85 8.468-1.113.73.382 1.14.843 1.453 1.296a3.236 3.236 0 0 1 .36.63l.01.026c0 .002 0 .001 0 0l-.001-.002v-.002h-.002c0-.002 0-.004.942-.338l.941-.335v-.002-.004a6.315 6.315 0 0 0-.614-1.122 6.724 6.724 0 0 0-2.13-1.904c-2.117-1.154-5.402-1.4-10.328 1.083l.901 1.787z"/></g><path fill="#111" d="M375.402 545.987a4.001 4.001 0 1 1-6.635-4.474 4.001 4.001 0 0 1 6.635 4.474zM398.004 551.135a4.001 4.001 0 1 1-6.633-4.476 4.001 4.001 0 0 1 6.633 4.476z" style="user-select:none"/><g style="user-select:none"><g><path stroke-linecap="round" stroke-linejoin="round" stroke="#E4E4E4" stroke-width="40" d="M302.945 680.972l-72.242-36.91 62.25-52.022" fill="none"/><g><path stroke-linecap="round" stroke-linejoin="round" stroke="#FFF" stroke-width="19" d="M314.347 678.1229999999999l-68.63-35.065 59.138-49.42" fill="none"/></g></g></g><path fill="#DFDFDF" d="M326.35 681.907c12.288 0 22.25 9.962 22.25 22.25h-44.5c0-12.288 9.961-22.25 22.25-22.25z" style="user-select:none"/><g style="user-select:none" display="block"><path fill="#F8A34F" d="M315.35200000000003 669.706c6.266 5.419 6.953 14.891 1.534 21.157-5.419 6.265-14.892 6.952-21.158 1.533l19.624-22.69zm-20.946 21.546c-6.266-5.418-6.953-14.89-1.534-21.156 5.419-6.266 14.892-6.954 21.158-1.535l-19.624 22.691zM295.728 692.396l-1.322-1.144 19.624-22.691 1.322 1.145-19.624 22.69z" display="block"/><path fill="#FCB064" d="M317.7 680.143c-2.256 2.456-6.433 2.29-9.328-.37-2.896-2.66-3.414-6.808-1.158-9.264 2.257-2.456 6.433-2.29 9.329.37 2.895 2.66 3.413 6.809 1.157 9.264z" display="block"/><path fill="#F8A34F" d="M320.65099999999995 674.157c12.554 0 22.924 8.496 24.533 19.509.239 1.639-1.126 2.991-2.783 2.991h-41.5c-2.761 0-5.061-2.272-4.398-4.953 2.481-10.044 12.351-17.547 24.148-17.547z" display="block"/><path fill="#FCB064" d="M332.776 682.015c-.661 2.081-4.235 2.804-7.982 1.613-3.748-1.189-6.251-3.841-5.59-5.923.66-2.081 4.234-2.803 7.982-1.613s6.251 3.841 5.59 5.923zM346.4 691.532a5 5 0 1 0-10 0h10zm-10 8a5 5 0 0 0 10 0h-10zm0 0h10v-8h-10v8z" display="block"/><path fill="#FCB064" d="M335.4 688.782a5 5 0 1 0-10 0h10zm-10 8a5 5 0 0 0 10 0h-10zm0 0h10v-8h-10v8z" display="block"/></g><path stroke-linecap="round" stroke="#111" stroke-width="5" d="M365.082 532.169l12.885-3.741M403.70799999999997 537.154l-9.084-6.439" fill="none" style="user-select:none"/><g style="user-select:none"><path fill="#999" d="M398.599 694.907a5 5 0 1 0 0 10v-10zm63.876 10a5 5 0 0 0 0-10v10zm-63.876 0h63.876v-10h-63.876v10z"/><path fill="#999" d="M476.712 602.433c1.686-9.558 9.991-16.525 19.696-16.525h114.156c12.435 0 21.856 11.227 19.696 23.474l-15.086 85.526H460.4l16.312-92.475z"/><path fill="#333" d="M478.71200000000005 602.433c1.686-9.558 9.991-16.525 19.696-16.525h120.116c9.326 0 16.39 8.421 14.77 17.605l-16.12 91.395H462.399l16.313-92.475z"/><path fill="#333" d="M462.4 694.907a5 5 0 0 0 0 10v-10zm153 10a5 5 0 0 0 0-10v10zm-153 0h153v-10h-153v10z"/></g><path fill="#F1F1F1" d="M1110.047 719.3389999999999v243.276H-52.002V719.34h1162.047z" style="user-select:none"/><g style="user-select:none"><path stroke-linecap="round" stroke="#BA7A20" stroke-width="20" d="M114 713.9680000000001h738" fill="none"/><path stroke-linecap="round" stroke="#E79E33" stroke-width="20" d="M254 713.9680000000001h738" fill="none"/></g></g></svg>