<svg xmlns="http://www.w3.org/2000/svg" width="1100" height="800" viewBox="0 0 1100 800" style="width:100%;height:100%"><defs><clipPath id="a"><path d="M0 0h1100v800H0z"/></clipPath><mask id="h"><path fill="#111" d="M-4.109 8.971C2.824 10.7 11.283 2.169 13.012-4.764l-22.196-5.535c-1.608-.401-3.249.582-3.362 2.235-.466 6.812 2.424 15.535 8.437 17.035z" transform="rotate(-5 6884.36 -6117.72)" style="user-select:none"/></mask><mask id="g"><path fill="#6ECE97" d="M52.614-50.86V50.86H-52.614V-50.86H52.614z" transform="translate(477.328 560.204)" style="user-select:none"/></mask><mask id="e"><path fill="#111" d="M4.445 33.656c-22.467 1.176-43.733-24.667-51.188-48.994-2.427-7.921 3.96-15.055 12.233-15.488l68.299-3.573c8.272-.433 15.381 5.983 13.987 14.149C43.519 4.68 26.902 32.481 4.445 33.656z" display="block" transform="matrix(-1 0 0 1 256.12 632.9)" style="user-select:none"/></mask><mask id="d"><path fill="#35505D" d="M240.507 49.87c-2.843 108.4-116.804 102.832-238.414 104.963-99.794-1.523-242.721-12.17-239.878-120.57 2.843-108.401 97.88-192.533 249.296-188.561C162.927-150.328 243.35-58.53 240.507 49.87z" transform="matrix(1 0 0 .836 318.872 655.002)" style="user-select:none"/></mask><mask id="c"><path fill="#6ECE97" d="M52.614-50.86V50.86H-52.614V-50.86H52.614z" transform="translate(630.085 565.603)" style="user-select:none"/></mask><clipPath id="b"><path fill="#fff" d="M-293.131-256.131v510h750v-510h-750"/></clipPath></defs><g clip-path="url(#a)"><g style="user-select:none"><path fill="#F1F1F1" d="M1131.024-30.913999999999987v861.828H-31.024V-30.914h1162.046z"/><path stroke="#DA5A40" stroke-width="20" d="M1131.024-30.913999999999987v861.828H-31.024V-30.914h1162.046z" fill="none"/></g><g clip-path="url(#b)" transform="translate(468.131 456.131)" opacity=".33" style="user-select:none"><path fill="#60A4DA" d="M81.869-256.131c206.962 0 375 168.038 375 375 0 206.963-168.038 375-375 375s-375-168.038-375-375 168.038-375 375-375z"/></g><g style="user-select:none"><g><path stroke-linecap="round" stroke-linejoin="round" stroke="#34505D" stroke-width="36" d="M619.97 537.875c-1.017-4.208-28.233-113.483-107.284-101.607-79.051 11.875-72.958 124.323-72.694 128.645" fill="none"/><g><path stroke-linecap="round" stroke-linejoin="round" stroke="#586D76" stroke-width="11.399999999999999" d="M614.2719999999999 544.5319999999999c-.967-3.998-26.821-107.81-101.92-96.528-75.099 11.282-69.31 118.108-69.06 122.213" fill="none"/></g></g></g><path fill="#35505D" d="M636.6850000000001 566.8779999999999c-14.622 5.532-30.961-1.836-36.495-16.458-5.532-14.623 1.838-30.961 16.46-36.493 14.622-5.533 30.96 1.835 36.492 16.458 5.533 14.621-1.835 30.96-16.457 36.493z" style="user-select:none"/><g mask="url(#c)"><path fill="#FFF" d="M641.7729999999999 558.333c-11.335 4.288-24.002-1.423-28.29-12.759-4.29-11.335 1.422-24.001 12.758-28.29 11.336-4.29 24.001 1.422 28.29 12.759 4.29 11.334-1.423 24-12.758 28.29z" style="user-select:none"/></g><path fill="#111" d="M646.506 550.0649999999999a5.665 5.665 0 1 1-4.01-10.597 5.665 5.665 0 0 1 4.01 10.597z" style="user-select:none"/><path fill="#35505D" d="M559.379 696.693c-2.843 90.622-116.804 85.968-238.414 87.75-99.794-1.274-242.721-10.175-239.878-100.797 2.843-90.624 97.88-160.958 249.296-157.637 151.416 3.319 231.839 80.062 228.996 170.684z" style="user-select:none"/><g mask="url(#d)"><path fill="#586C76" d="M546.4939999999999 694.865c-4.537 62.736-98.835 109.013-210.619 103.365-111.783-5.65-198.725-61.087-194.189-123.823 4.537-62.736 98.833-109.014 210.617-103.364 111.784 5.649 198.727 61.086 194.191 123.822z" style="user-select:none"/></g><g opacity=".75" style="user-select:none"><path fill="#C4D3DB" d="M361.918 540.524c-.108 2.27-4.117 3.923-8.956 3.693-4.838-.232-8.673-2.262-8.564-4.532.11-2.271 4.119-3.925 8.957-3.693 4.838.231 8.672 2.26 8.564 4.531zM423.748 549.542c-.27 2.657-10.502 3.603-22.853 2.112-12.353-1.49-22.146-4.853-21.878-7.51.27-2.657 10.501-3.604 22.854-2.113 12.351 1.49 22.146 4.852 21.877 7.51zM497.412 595.732c-.72 1.386-3.582 1.107-6.392-.623-2.81-1.73-4.505-4.255-3.786-5.642.72-1.385 3.581-1.105 6.392.625 2.81 1.73 4.505 4.255 3.786 5.64zM531.854 626.672c-1.703 2.212-8.207-.73-14.527-6.572-6.322-5.842-10.067-12.372-8.364-14.583 1.703-2.213 8.208.73 14.529 6.573 6.32 5.84 10.065 12.37 8.362 14.582zM547.545 668.161c-1.8.632-5.225-5.912-7.65-14.617-2.429-8.704-2.936-16.275-1.137-16.907 1.8-.633 5.226 5.912 7.652 14.617 2.426 8.704 2.935 16.275 1.135 16.907z"/></g><path fill="#111" d="M251.675 666.5559999999999c22.467 1.176 43.733-24.667 51.188-48.994 2.427-7.921-3.96-15.055-12.233-15.488l-68.299-3.573c-8.272-.433-15.381 5.983-13.987 14.149 4.257 24.93 20.874 52.731 43.331 53.906z" display="block" style="user-select:none"/><g style="user-select:none" display="block" mask="url(#e)"><path fill="#EB5656" d="M277.61899999999997 671.625c3.289 16.912-9.543 33.637-28.664 37.355-19.12 3.72-37.287-6.975-40.576-23.887-3.289-16.912 9.544-33.637 28.664-37.356 19.121-3.718 37.286 6.976 40.576 23.888z" display="block"/><path fill="#EDEDED" d="M224.941 624.3399999999999c.415 1.881 2.988 2.145 3.777.388l6.333-14.107-10.692-1.097a1.999 1.999 0 0 0-2.156 2.42l2.738 12.396z" display="block"/><path fill="#EDEDED" d="M221.02200000000002 588.752l79.836 4.175-1.305 24.957a3 3 0 0 1-3.152 2.839l-73.845-3.862a3 3 0 0 1-2.839-3.152l1.305-24.957z" display="block"/></g><g style="user-select:none"><path fill="#522D5F" d="M328.67 541.287c-2.754-23.757 15.817-44.604 39.734-44.604h33.049c20.309 0 37.395 15.218 39.735 35.393l20.727 178.818c2.753 23.758-15.819 44.605-39.735 44.605h-33.049c-20.31 0-37.396-15.219-39.734-35.393L328.67 541.287z"/><path fill="#6F4780" d="M346.67 541.287c-2.754-23.757 15.817-44.604 39.734-44.604h33.049c20.309 0 37.395 15.218 39.735 35.393l20.727 178.818c2.753 23.758-15.819 44.605-39.735 44.605h-33.049c-20.31 0-37.396-15.219-39.734-35.393L346.67 541.287z"/></g><g style="user-select:none"><g><path stroke-linecap="round" stroke-linejoin="round" stroke="#34505D" stroke-width="36" d="M469.197 539.479c-1.544-3.98-39.864-100.433-126.785-98.538-86.92 1.895-121 99.927-122.369 103.971" fill="none"/><g><path stroke-linecap="round" stroke-linejoin="round" stroke="#586D76" stroke-width="11.399999999999999" d="M463.49899999999997 546.136c-1.466-3.782-37.87-95.412-120.445-93.612-82.575 1.8-114.95 94.93-116.25 98.773" fill="none"/></g></g></g><path fill="#35505D" d="M482.92900000000003 563.48c-14.622 5.532-30.961-1.836-36.495-16.458-5.532-14.623 1.838-30.961 16.46-36.493 14.622-5.533 30.96 1.835 36.492 16.458 5.533 14.621-1.835 30.96-16.457 36.493z" style="user-select:none"/><g mask="url(#g)"><path fill="#FFF" d="M488.016 554.934c-11.335 4.288-24.002-1.423-28.29-12.759-4.29-11.335 1.422-24.001 12.758-28.29 11.336-4.29 24.001 1.422 28.29 12.759 4.29 11.334-1.423 24-12.758 28.29z" style="user-select:none"/></g><path fill="#111" d="M492.749 546.667a5.665 5.665 0 1 1-4.01-10.597 5.665 5.665 0 0 1 4.01 10.597z" style="user-select:none"/><g style="user-select:none"><g><path stroke-linecap="round" stroke-linejoin="round" stroke="#E4E4E4" stroke-width="40" d="M624.297 680.403l-55.98-24.967s-35.157-47.858-36.29-49.398" fill="none"/><g><path stroke-linecap="round" stroke-linejoin="round" stroke="#FFF" stroke-width="28.5" d="M628.1 675.654l-53.181-23.719-34.476-46.928" fill="none"/></g></g></g><g style="user-select:none"><path fill="#FCB064" d="M643.693 670.1279999999999c6.267 5.419 6.953 14.89 1.534 21.157-5.42 6.265-14.891 6.952-21.158 1.533l19.624-22.69zm-20.946 21.546c-6.267-5.418-6.953-14.89-1.534-21.156 5.419-6.266 14.89-6.954 21.158-1.535l-19.624 22.69zM624.069 692.818l-1.322-1.144 19.624-22.691 1.322 1.145-19.624 22.69z"/><path fill="#FCB064" d="M633.79 674.579c12.555 0 22.925 8.496 24.534 19.509.239 1.639-1.126 2.99-2.783 2.99h-43.5c-1.657 0-3.022-1.351-2.783-2.99 1.609-11.013 11.979-19.51 24.533-19.51z"/></g><g style="user-select:none"><path fill="#1179B5" d="M458.72499999999997 588.101c2.859-10.669 13.825-17.001 24.494-14.142l48.689 13.046c10.669 2.859 17 13.825 14.141 24.494l-42.574 158.896c-2.859 10.669-13.826 17.001-24.496 14.142l-48.689-13.046c-10.669-2.859-17.001-13.826-14.142-24.495l42.577-158.895z"/><path fill="#2C9CDB" d="M482.324 594.415c2.859-10.669 13.826-17.001 24.495-14.142l25.127 6.732c10.669 2.859 17.001 13.826 14.141 24.495l-42.576 158.895c-2.858 10.67-13.825 17.001-24.494 14.143l-25.127-6.733c-10.669-2.859-17.001-13.826-14.142-24.495l42.576-158.895z"/><path fill="#F9F9F9" d="M499.93600000000004 587.6919999999999c.587-7.986 7.538-13.984 15.524-13.396l2.119.155c7.986.588 13.984 7.537 13.397 15.524-.587 7.986-7.538 13.985-15.524 13.397l-2.119-.156c-7.986-.587-13.984-7.537-13.397-15.524z"/><path fill="#EF9A43" d="M510.81100000000004 559.314c1.595-6.397 8.075-10.29 14.472-8.695 6.398 1.595 10.291 8.074 8.696 14.472l-5.666 22.719c-1.595 6.397-8.075 10.29-14.472 8.695-6.398-1.595-10.291-8.075-8.696-14.472l5.666-22.719z"/></g><g style="user-select:none"><g><path stroke-linecap="round" stroke-linejoin="round" stroke="#E4E4E4" stroke-width="40" d="M482.156 680.971l-71.953-37.495 62.749-51.436" fill="none"/><g><path stroke-linecap="round" stroke-linejoin="round" stroke="#FFF" stroke-width="19" d="M493.55899999999997 678.1229999999999l-68.356-35.62 59.612-48.865" fill="none"/></g></g></g><path fill="#DFDFDF" d="M505.561 681.907c12.288 0 22.25 9.962 22.25 22.25h-44.5c0-12.288 9.961-22.25 22.25-22.25z" style="user-select:none"/><g style="user-select:none"><path fill="#F8A34F" d="M494.563 669.706c6.266 5.419 6.953 14.891 1.534 21.157-5.419 6.265-14.892 6.952-21.158 1.533l19.624-22.69zm-20.946 21.546c-6.266-5.418-6.953-14.89-1.534-21.156 5.42-6.266 14.892-6.954 21.158-1.535l-19.624 22.691zM474.94 692.396l-1.323-1.144 19.624-22.691 1.322 1.145-19.624 22.69z"/><path fill="#FCB064" d="M496.911 680.143c-2.256 2.456-6.433 2.29-9.328-.37-2.896-2.66-3.414-6.808-1.158-9.264 2.257-2.456 6.433-2.29 9.33.37 2.894 2.66 3.412 6.809 1.156 9.264z"/><path fill="#F8A34F" d="M499.86199999999997 674.157c12.554 0 22.924 8.496 24.533 19.509.24 1.639-1.126 2.991-2.783 2.991h-41.5c-2.76 0-5.06-2.272-4.398-4.953 2.481-10.044 12.351-17.547 24.148-17.547z"/><path fill="#FCB064" d="M511.987 682.015c-.66 2.081-4.235 2.804-7.982 1.613-3.748-1.189-6.25-3.841-5.59-5.923.66-2.081 4.234-2.803 7.982-1.613s6.251 3.841 5.59 5.923zM525.611 691.532a5 5 0 1 0-10 0h10zm-10 8a5 5 0 0 0 10 0h-10zm0 0h10v-8h-10v8z"/><path fill="#FCB064" d="M514.611 688.782a5 5 0 1 0-10 0h10zm-10 8a5 5 0 0 0 10 0h-10zm0 0h10v-8h-10v8z"/></g><g style="user-select:none"><path fill="#F8A34F" d="M514.38 523.85c1.154-10.986 10.996-18.954 21.982-17.8l29.836 3.137c10.984 1.155 18.954 10.997 17.798 21.982l-3.66 34.807c-2.02 19.225-19.243 33.17-38.467 31.15-19.224-2.022-33.17-19.244-31.148-38.468l3.66-34.808z"/><path fill="#FCB064" d="M531.538 537.433a547211421847675600 547211421847675600 0 0 0 53.258-14.511l-4.895 46.56-51.167-5.38 2.804-26.669z"/><path fill="#AA6B2E" d="M511.811 548.4019999999999l60.604 6.37a9.063 9.063 0 0 1 8.065 9.96l-.13 1.243c-2.021 19.224-19.244 33.17-38.468 31.15-19.225-2.023-33.17-19.244-31.15-38.469l1.079-10.255z"/><path fill="#B17439" d="M529.955 550.325l42.39 4.457a9.062 9.062 0 0 1 8.065 9.96l-1.088 10.35c-1.493 14.193-14.21 24.49-28.403 22.998-14.195-1.492-24.492-14.209-22.999-28.403l2.035-19.362z"/><path fill="#412710" d="M578.346 470.565l-10.605-13.241s4.22 9.32-.842 14.082c-2.506 2.359-4.224 4.737-5.35 7.069a13.284 13.284 0 0 0-4.65-6.438l-9.838-7.413s4.642 5.8 1.936 10.06c-.888 1.398-1.532 2.74-1.974 4.024a13.442 13.442 0 0 0-3.585-2.561l-11.05-5.445s5.195 4.447 3.972 8.95c-7.825 1.23-16.83 4.021-23.06 10.166l-2.657 40.193 8.193 3.375 16.742-15.052s25.57 9.689 28.56 9.759c2.99.07 16.298-1.345 16.298-1.345l3.908 2.212s.841-2.13 1.869-5.437c14.3-6.128 21.43-23.389 14.149-38.28l-11.376-23.257s3.175 15.286-5.952 20.691c-.22.131-.439.263-.654.395.236-4.312-1.032-8.76-4.034-12.507z"/><path fill="#874B14" d="M596.5020000000001 497.8c-.23 4.423-2.603 9.59-6.81 13.934-6.172 6.376-14.243 8.862-19.302 6.315.103.112.21.221.322.329 4.69 4.541 13.76 2.782 20.26-3.93 5.02-5.184 7.036-11.81 5.53-16.649zM554.48 488.086c5.135 1.316 9.965 7.305 11.726 15.242 1.538 6.919.337 13.482-2.71 17.28 5.52-2.235 8.419-10.197 6.54-18.658-2.027-9.118-8.836-15.364-15.21-13.949-.116.026-.231.054-.346.085z"/><path fill="#874B14" d="M584.137 486.82300000000004c1.47 5.303.536 12.403-2.997 19.164-4.365 8.354-11.44 13.778-17.692 14.263 6.739 1.32 15.002-3.793 19.63-12.648 3.927-7.519 4.128-15.618 1.06-20.779z"/><path fill="#874B14" d="M536.7860000000001 492.632c5.502-.13 12.158 2.508 17.853 7.584 7.034 6.273 10.568 14.457 9.512 20.639 2.925-6.213-.017-15.473-7.474-22.122-6.333-5.645-14.136-7.817-19.89-6.101z"/><path fill="#F8A34F" d="M525.716 541.018c-.642 6.111-6.116 10.543-12.226 9.901-6.111-.643-10.544-6.117-9.901-12.228.641-6.11 6.117-10.543 12.227-9.9 6.11.642 10.543 6.116 9.9 12.227z"/><path fill="#D37018" d="M511.212 542.773a4.001 4.001 0 0 0 3.35-6.7 4.001 4.001 0 1 1-4.737 6.293c.42.214.89.355 1.387.407z"/></g><path fill="#111" d="M554.249 541.398a4.001 4.001 0 1 1-7.86-1.5 4.001 4.001 0 0 1 7.86 1.5zM577.277 543.556a4.001 4.001 0 1 1-7.987.5 4.001 4.001 0 0 1 7.987-.5z" style="user-select:none"/><path fill="#111" d="M556.0799999999999 586.0269999999999c7.057 1.118 14.74-8.118 15.859-15.175l-22.594-3.58c-1.637-.259-3.186.863-3.155 2.52.13 6.827 3.77 15.265 9.89 16.235z" display="block" style="user-select:none"/><g style="user-select:none" display="block" mask="url(#h)"><path fill="#EB5656" d="M562.465 584.949c.396 4.514-3.421 8.534-8.525 8.98-5.103.447-9.56-2.85-9.956-7.363-.394-4.514 3.423-8.536 8.526-8.983 5.104-.446 9.561 2.852 9.956 7.366z" display="block"/><path fill="#EDEDED" d="M553.016 564.86l17.414 2.759-.681 4.308a3 3 0 0 1-3.433 2.494l-11.487-1.82a3 3 0 0 1-2.494-3.431l.681-4.31z" display="block"/></g><path stroke-linecap="round" stroke="#111" stroke-width="5" d="M542.315 529.5640000000001l12.672-4.408M581.21 531.0160000000001l-9.553-5.718" fill="none" style="user-select:none"/><path fill="#FFF" d="M808.716 536.238a10 10 0 0 1 9.86-8.331h134.489c6.189 0 10.893 5.566 9.859 11.669l-21.84 129a10 10 0 0 1-9.86 8.331H796.736c-6.19 0-10.894-5.566-9.86-11.669l21.84-129zM638.716 536.238a10 10 0 0 1 9.86-8.331h134.489c6.189 0 10.893 5.566 9.859 11.669l-21.84 129a10 10 0 0 1-9.86 8.331H626.736c-6.19 0-10.894-5.566-9.86-11.669l21.84-129zM838.716 376.238a10 10 0 0 1 9.86-8.331h134.489c6.189 0 10.893 5.566 9.859 11.669l-21.84 129a10 10 0 0 1-9.86 8.331H826.736c-6.19 0-10.894-5.566-9.86-11.669l21.84-129z" opacity=".5" style="user-select:none"/><g style="user-select:none"><path fill="#999" d="M578.599 694.907a5 5 0 1 0 0 10v-10zm63.876 10a5 5 0 0 0 0-10v10zm-63.876 0h63.876v-10h-63.876v10z"/><path fill="#999" d="M656.712 602.433c1.686-9.558 9.991-16.525 19.696-16.525h114.156c12.435 0 21.856 11.227 19.696 23.474l-15.086 85.526H640.4l16.312-92.475z"/><path fill="#333" d="M658.712 602.433c1.686-9.558 9.991-16.525 19.696-16.525h120.116c9.326 0 16.39 8.421 14.77 17.605l-16.12 91.395H642.399l16.313-92.475z"/><path fill="#333" d="M642.4 694.907a5 5 0 0 0 0 10v-10zm153 10a5 5 0 0 0 0-10v10zm-153 0h153v-10h-153v10z"/></g><path fill="#F1F1F1" d="M1110.047 719.3389999999999v243.276H-52.002V719.34h1162.047z" style="user-select:none"/><g style="user-select:none"><path stroke-linecap="round" stroke="#BA7A20" stroke-width="20" d="M60 713.9680000000001h738" fill="none"/><path stroke-linecap="round" stroke="#E79E33" stroke-width="20" d="M306 713.9680000000001h738" fill="none"/></g></g></svg>